<svg width="129" height="123" viewBox="0 0 129 123" fill="none" xmlns="http://www.w3.org/2000/svg">
    <path d="M51.3086 0.869214C66.7781 -1.79421 83.1991 1.73535 96.2258 10.4669C101.831 14.1811 106.815 18.8395 110.851 24.2158C111.448 25.0169 112.099 25.7998 112.488 26.7336C109.954 28.1719 107.292 29.3788 104.714 30.7391C103.121 31.4908 101.614 32.4298 99.9668 33.0618C99.0752 32.1749 98.4391 31.0772 97.5944 30.1513C95.7096 28.0419 93.6424 26.0937 91.3874 24.3875C87.3649 21.3365 82.9905 18.6835 78.2225 16.9694C61.3687 10.7088 41.1052 14.9796 28.2818 27.5737C18.2868 37.2572 13.0939 51.4951 14.1158 65.3168C15.0047 74.3033 18.2321 83.1207 23.7457 90.3202C25.3307 92.3516 26.8766 94.5078 29.0482 95.9618C31.4153 97.5094 34.4732 97.8787 37.1661 97.0412C39.8721 96.2531 42.1688 94.5625 44.661 93.3062C48.1491 91.5167 51.6397 89.7324 55.1252 87.9377C59.1242 85.9349 62.912 83.4744 67.1378 81.945C69.9455 80.902 73.0634 80.3402 76.0118 81.0997C78.7908 81.8436 81.0327 83.8645 82.6438 86.1794C83.0896 86.8661 83.6813 87.5267 83.8065 88.3643C79.2365 91.0953 74.4633 93.4804 69.7891 96.0268C63.9001 99.1896 57.9876 102.303 52.0725 105.414C50.9802 106.02 49.7575 106.433 48.8269 107.294C56.4938 109.578 64.7525 109.716 72.529 107.88C80.8529 106.054 88.7466 102.043 94.8363 96.058C98.4469 92.5207 101.437 88.3747 103.755 83.8958C105.509 80.4728 106.969 76.8809 107.837 73.1276C109.378 66.4925 109.803 59.5218 108.52 52.8086C108.173 52.7696 107.868 52.9569 107.574 53.0973C102.727 55.7529 97.8239 58.3149 92.9046 60.8379C81.8409 66.3286 70.8214 71.9129 59.7942 77.4765C56.877 78.9382 53.4593 79.5417 50.2685 78.6782C46.5302 77.7756 43.5583 75.224 40.3935 73.2004C34.7625 69.6345 29.1368 66.0555 23.5424 62.4349C23.3573 62.2918 23.1931 62.1306 23.0471 61.9537C25.6905 59.8677 28.5112 58.0132 31.1676 55.9454C33.1202 54.4212 35.4065 53.2143 37.9065 52.9647C39.442 52.7514 40.9983 53.1051 42.38 53.7788C46.4728 55.7425 50.7403 57.3213 54.8123 59.3293C56.8223 60.2943 59.0512 61.0512 61.3114 60.7104C63.947 60.3281 66.0873 58.627 68.41 57.4696C73.5144 54.853 78.4988 51.9997 83.7022 49.5756C88.3738 47.3569 93.035 45.1122 97.5554 42.5919C101.7 40.3888 105.798 38.0895 110.019 36.0295C113.199 34.534 116.802 33.6652 120.316 34.2531C122.712 34.6328 124.946 35.8735 126.555 37.6812C127.574 38.8308 128.604 40.0663 129 41.5853C126.633 43.3462 123.807 44.41 121.383 46.0902C121.721 49.1672 122.769 52.1271 123.043 55.2223C124.967 73.4527 118.327 92.4791 105.196 105.357C98.5382 111.95 90.3029 116.91 81.4185 119.891C76.9894 121.48 72.31 122.216 67.6462 122.705C59.1815 123.465 50.5057 122.815 42.4269 120.073C34.9242 117.589 27.9455 113.612 21.8322 108.629C14.645 102.644 9.07138 94.846 5.34609 86.3017C1.20892 76.7612 -0.68109 66.2115 0.220903 55.8362C0.948233 46.1708 4.23555 36.7344 9.51977 28.6115C13.9567 21.8671 19.5199 15.8042 26.1311 11.1302C33.579 5.81372 42.3017 2.3934 51.3086 0.869214Z" fill="#23C879"/>
</svg>