<?xml version="1.0" encoding="UTF-8"?>
<svg
    style="shape-rendering:geometricPrecision; text-rendering:geometricPrecision; image-rendering:optimizeQuality; fill-rule:evenodd; clip-rule:evenodd"
    height="1186px" version="1.1" width="791px" xmlns="http://www.w3.org/2000/svg">
    <g>
        <path style="opacity:0.004"
            d="M 430.5,134.5 C 431.167,135.167 431.833,135.833 432.5,136.5C 430.61,136.297 429.11,136.963 428,138.5C 427.383,137.551 427.549,136.718 428.5,136C 427.216,135.316 426.049,135.483 425,136.5C 423.451,133.997 421.784,133.997 420,136.5C 418.513,135.747 418.346,134.914 419.5,134C 415.093,134.093 410.76,133.927 406.5,133.5C 405.167,133.667 403.833,133.833 402.5,134C 403.888,134.889 403.722,135.389 402,135.5C 400.535,134.67 399.035,134.504 397.5,135C 398.696,135.654 398.696,136.154 397.5,136.5C 396.833,136.167 396.167,135.833 395.5,135.5C 394.029,136.417 392.529,137.417 391,138.5C 390.586,138.043 390.086,137.709 389.5,137.5C 385.756,139.121 382.256,141.121 379,143.5C 378.53,142.423 378.697,141.423 379.5,140.5C 379.842,139.662 380.508,139.328 381.5,139.5C 384.485,138.674 387.151,137.341 389.5,135.5C 403.042,129.519 416.709,129.186 430.5,134.5 Z"
            fill="#36c2a8" />
    </g>
    <g>
        <path style="opacity:0.004"
            d="M 430.5,134.5 C 431.959,134.433 433.292,134.766 434.5,135.5C 434.158,136.338 433.492,136.672 432.5,136.5C 431.833,135.833 431.167,135.167 430.5,134.5 Z"
            fill="#16e40d" />
    </g>
    <g>
        <path style="opacity:0.004"
            d="M 389.5,135.5 C 387.151,137.341 384.485,138.674 381.5,139.5C 383.579,137.127 386.246,135.794 389.5,135.5 Z"
            fill="#20c315" />
    </g>
    <g>
        <path style="opacity:0.004"
            d="M 375.5,143.5 C 372.833,146.833 369.833,149.833 366.5,152.5C 368.5,148.5 371.5,145.5 375.5,143.5 Z"
            fill="#24a618" />
    </g>
    <g>
        <path style="opacity:0.004"
            d="M 366.5,152.5 C 365.66,154.853 364.326,156.853 362.5,158.5C 362.845,155.802 364.178,153.802 366.5,152.5 Z"
            fill="#21bc16" />
    </g>
    <g>
        <path style="opacity:0.004"
            d="M 465.5,172.5 C 469.165,183.89 468.832,195.224 464.5,206.5C 463.833,207.167 463.167,207.833 462.5,208.5C 463.346,206.155 463.346,203.488 462.5,200.5C 463.441,200.511 464.108,200.011 464.5,199C 463.591,197.211 463.424,195.377 464,193.5C 464.333,193.833 464.667,194.167 465,194.5C 465.667,189.833 465.667,185.167 465,180.5C 463.982,181.706 463.482,181.373 463.5,179.5C 463.756,178.311 464.089,177.144 464.5,176C 464.108,174.989 463.441,174.489 462.5,174.5C 463.005,173.081 464.005,172.415 465.5,172.5 Z"
            fill="#3ec4a6" />
    </g>
    <g>
        <path style="opacity:0.004"
            d="M 360.5,162.5 C 363.524,162.947 363.857,163.78 361.5,165C 362.833,166.84 362.666,167.34 361,166.5C 360.383,167.449 360.549,168.282 361.5,169C 359.311,169.677 358.978,170.844 360.5,172.5C 357.884,173.079 357.884,174.579 360.5,177C 359.747,178.487 358.914,178.654 358,177.5C 357.531,180.944 358.031,184.278 359.5,187.5C 358.031,190.722 357.531,194.056 358,197.5C 358.914,196.346 359.747,196.513 360.5,198C 357.884,200.421 357.884,201.921 360.5,202.5C 359.995,203.919 358.995,204.585 357.5,204.5C 354.213,194.776 353.713,184.776 356,174.5C 356.601,170.048 358.101,166.048 360.5,162.5 Z"
            fill="#39aa99" />
    </g>
    <g>
        <path style="opacity:0.004"
            d="M 464.5,206.5 C 464.567,207.959 464.234,209.292 463.5,210.5C 462.662,210.158 462.328,209.492 462.5,208.5C 463.167,207.833 463.833,207.167 464.5,206.5 Z"
            fill="#16e40d" />
    </g>
    <g>
        <path style="opacity:0.004"
            d="M 359.5,210.5 C 360.933,212.519 362.267,214.686 363.5,217C 363.272,217.399 362.938,217.565 362.5,217.5C 360.707,215.574 359.707,213.241 359.5,210.5 Z"
            fill="#20c115" />
    </g>
    <g>
        <path style="opacity:0.004"
            d="M 372.5,229.5 C 374.749,230.08 376.415,231.413 377.5,233.5C 375.251,232.92 373.585,231.587 372.5,229.5 Z"
            fill="#24a218" />
    </g>
    <g>
        <path style="opacity:0.004"
            d="M 382.5,237.5 C 382.5,237.167 382.5,236.833 382.5,236.5C 384.819,236.992 386.819,237.992 388.5,239.5C 386.297,239.396 384.297,238.73 382.5,237.5 Z"
            fill="#1fc615" />
    </g>
    <g>
        <path style="opacity:0.004"
            d="M 439.5,236.5 C 439.5,236.833 439.5,237.167 439.5,237.5C 437.703,238.73 435.703,239.396 433.5,239.5C 435.181,237.992 437.181,236.992 439.5,236.5 Z"
            fill="#1fc615" />
    </g>
    <g>
        <path style="opacity:0.004"
            d="M 439.5,236.5 C 437.181,236.992 435.181,237.992 433.5,239.5C 426.304,242.728 418.638,244.394 410.5,244.5C 413.343,242.599 416.676,241.433 420.5,241C 419.346,240.086 419.513,239.253 421,238.5C 422.133,240.211 423.633,240.711 425.5,240C 425.167,239.667 424.833,239.333 424.5,239C 425.549,238.508 426.549,238.674 427.5,239.5C 428.971,238.583 430.471,237.583 432,236.5C 434.548,236.286 437.048,236.286 439.5,236.5 Z"
            fill="#39b39a" />
    </g>
    <g>
        <path style="opacity:0.004"
            d="M 382.5,236.5 C 384.952,236.286 387.452,236.286 390,236.5C 390.308,237.308 390.808,237.975 391.5,238.5C 392.998,238.834 394.665,238.834 396.5,238.5C 397.079,241.116 398.579,241.116 401,238.5C 402.119,239.552 402.619,240.719 402.5,242C 401.584,242.278 400.918,242.778 400.5,243.5C 396.195,242.765 392.195,241.432 388.5,239.5C 386.819,237.992 384.819,236.992 382.5,236.5 Z"
            fill="#3bbfa7" />
    </g>
    <g>
        <path style="opacity:0.998"
            d="M 432.5,136.5 C 433.492,136.672 434.158,136.338 434.5,135.5C 451.033,142.695 461.366,155.028 465.5,172.5C 464.005,172.415 463.005,173.081 462.5,174.5C 463.441,174.489 464.108,174.989 464.5,176C 464.089,177.144 463.756,178.311 463.5,179.5C 463.482,181.373 463.982,181.706 465,180.5C 465.667,185.167 465.667,189.833 465,194.5C 464.667,194.167 464.333,193.833 464,193.5C 463.424,195.377 463.591,197.211 464.5,199C 464.108,200.011 463.441,200.511 462.5,200.5C 463.346,203.488 463.346,206.155 462.5,208.5C 462.328,209.492 462.662,210.158 463.5,210.5C 458.326,222.007 450.326,231.007 439.5,237.5C 439.5,237.167 439.5,236.833 439.5,236.5C 437.048,236.286 434.548,236.286 432,236.5C 430.471,237.583 428.971,238.583 427.5,239.5C 426.549,238.674 425.549,238.508 424.5,239C 424.833,239.333 425.167,239.667 425.5,240C 423.633,240.711 422.133,240.211 421,238.5C 419.513,239.253 419.346,240.086 420.5,241C 416.676,241.433 413.343,242.599 410.5,244.5C 409.935,257.506 409.269,270.506 408.5,283.5C 514.864,291.233 621.198,299.4 727.5,308C 762.782,316.778 783.782,338.945 790.5,374.5C 790.5,381.5 790.5,388.5 790.5,395.5C 785.014,460.987 779.847,526.654 775,592.5C 770.35,632.152 748.516,656.319 709.5,665C 700.5,665.667 691.5,665.667 682.5,665C 477.492,649.435 272.492,633.769 67.5,618C 28.2921,610.295 5.62543,586.795 -0.5,547.5C -0.5,543.167 -0.5,538.833 -0.5,534.5C 5.19544,463.302 11.0288,391.968 17,320.5C 27.8707,281.794 53.3707,261.461 93.5,259.5C 195.512,267.065 297.512,274.732 399.5,282.5C 399.911,271.821 400.578,261.155 401.5,250.5C 401.497,247.975 401.163,245.641 400.5,243.5C 400.918,242.778 401.584,242.278 402.5,242C 402.619,240.719 402.119,239.552 401,238.5C 398.579,241.116 397.079,241.116 396.5,238.5C 394.665,238.834 392.998,238.834 391.5,238.5C 390.808,237.975 390.308,237.308 390,236.5C 387.452,236.286 384.952,236.286 382.5,236.5C 382.5,236.833 382.5,237.167 382.5,237.5C 380.611,236.396 378.945,235.063 377.5,233.5C 376.415,231.413 374.749,230.08 372.5,229.5C 368.066,226.401 364.733,222.401 362.5,217.5C 362.938,217.565 363.272,217.399 363.5,217C 362.267,214.686 360.933,212.519 359.5,210.5C 357.926,208.898 357.259,206.898 357.5,204.5C 358.995,204.585 359.995,203.919 360.5,202.5C 357.884,201.921 357.884,200.421 360.5,198C 359.747,196.513 358.914,196.346 358,197.5C 357.531,194.056 358.031,190.722 359.5,187.5C 358.031,184.278 357.531,180.944 358,177.5C 358.914,178.654 359.747,178.487 360.5,177C 357.884,174.579 357.884,173.079 360.5,172.5C 358.978,170.844 359.311,169.677 361.5,169C 360.549,168.282 360.383,167.449 361,166.5C 362.666,167.34 362.833,166.84 361.5,165C 363.857,163.78 363.524,162.947 360.5,162.5C 360.66,160.847 361.326,159.514 362.5,158.5C 364.326,156.853 365.66,154.853 366.5,152.5C 369.833,149.833 372.833,146.833 375.5,143.5C 376.262,141.738 377.596,140.738 379.5,140.5C 378.697,141.423 378.53,142.423 379,143.5C 382.256,141.121 385.756,139.121 389.5,137.5C 390.086,137.709 390.586,138.043 391,138.5C 392.529,137.417 394.029,136.417 395.5,135.5C 396.167,135.833 396.833,136.167 397.5,136.5C 398.696,136.154 398.696,135.654 397.5,135C 399.035,134.504 400.535,134.67 402,135.5C 403.722,135.389 403.888,134.889 402.5,134C 403.833,133.833 405.167,133.667 406.5,133.5C 410.76,133.927 415.093,134.093 419.5,134C 418.346,134.914 418.513,135.747 420,136.5C 421.784,133.997 423.451,133.997 425,136.5C 426.049,135.483 427.216,135.316 428.5,136C 427.549,136.718 427.383,137.551 428,138.5C 429.11,136.963 430.61,136.297 432.5,136.5 Z"
            fill="#49cd98" />
    </g>
    <g>
        <path style="opacity:0.983"
            d="M 397.5,207.5 C 390.635,205.489 386.802,200.822 386,193.5C 385.333,189.167 385.333,184.833 386,180.5C 388.122,175.75 390.789,171.417 394,167.5C 410.498,157.581 424.498,160.248 436,175.5C 441.772,190.846 437.939,203.013 424.5,212C 420.129,212.641 415.796,213.474 411.5,214.5C 405.609,214.216 400.942,211.882 397.5,207.5 Z"
            fill="#2ca376" />
    </g>
    <g>
        <path style="opacity:1"
            d="M 397.5,207.5 C 395.274,203.393 392.774,199.393 390,195.5C 387.164,182.675 391.33,172.842 402.5,166C 412.494,162.479 420.994,164.645 428,172.5C 429.752,175.672 431.752,178.672 434,181.5C 434.772,185.89 434.606,190.223 433.5,194.5C 430.389,197.623 428.056,201.29 426.5,205.5C 423.93,206.223 421.597,207.39 419.5,209C 411.936,210.051 404.603,209.551 397.5,207.5 Z"
            fill="#1e7c59" />
    </g>
    <g>
        <path style="opacity:1"
            d="M 404.5,171.5 C 414.152,169.915 421.986,172.915 428,180.5C 430.826,192.349 426.66,200.516 415.5,205C 407.415,205.894 400.915,203.061 396,196.5C 391.603,185.315 394.437,176.982 404.5,171.5 Z"
            fill="#0f4934" />
    </g>
    <g>
        <path style="opacity:1"
            d="M 406.5,173.5 C 409.518,173.335 412.518,173.502 415.5,174C 418.339,176.672 421.006,179.505 423.5,182.5C 425.322,196.177 419.322,202.01 405.5,200C 396.189,193.58 395.022,185.747 402,176.5C 403.878,175.947 405.378,174.947 406.5,173.5 Z"
            fill="#082d1f" />
    </g>
    <g>
        <path style="opacity:1"
            d="M 407.5,177.5 C 418.01,176.508 422.51,181.175 421,191.5C 417.516,197.885 412.349,199.718 405.5,197C 398.513,189.756 399.18,183.256 407.5,177.5 Z"
            fill="#02100b" />
    </g>
    <g>
        <path style="opacity:1"
            d="M 196.5,381.5 C 234.342,379.887 259.176,396.887 271,432.5C 275.862,459.246 268.362,481.746 248.5,500C 224.396,517.006 199.063,519.006 172.5,506C 145.037,487.553 134.871,462.053 142,429.5C 151.344,403.314 169.511,387.314 196.5,381.5 Z"
            fill="#fafcfb" />
    </g>
    <g>
        <path style="opacity:1"
            d="M 195.5,394.5 C 230.908,392.1 252.408,408.1 260,442.5C 260.629,474.407 245.462,494.241 214.5,502C 184.362,504.019 164.196,490.852 154,462.5C 148.764,427.943 162.597,405.276 195.5,394.5 Z"
            fill="#010101" />
    </g>
    <g>
        <path style="opacity:1"
            d="M 577.5,410.5 C 615.531,410.047 639.698,428.047 650,464.5C 653.854,494.95 643.02,518.45 617.5,535C 579.686,552.092 549.186,543.592 526,509.5C 511.011,477.26 516.511,449.094 542.5,425C 552.882,416.801 564.549,411.968 577.5,410.5 Z"
            fill="#fafcfb" />
    </g>
    <g>
        <path style="opacity:1"
            d="M 573.5,423.5 C 607.578,420.777 629.078,435.777 638,468.5C 639.621,502.097 624.121,522.931 591.5,531C 558.968,532.121 538.802,516.955 531,485.5C 529.052,453.716 543.218,433.049 573.5,423.5 Z"
            fill="#010101" />
    </g>
    <g>
        <path style="opacity:1"
            d="M 324.5,526.5 C 367.205,529.798 409.872,533.631 452.5,538C 455.635,539.266 457.302,541.599 457.5,545C 447.581,572.923 428.248,590.256 399.5,597C 366.232,599.954 342.399,586.454 328,556.5C 325.382,550.266 323.049,543.932 321,537.5C 319.663,532.872 320.83,529.205 324.5,526.5 Z"
            fill="#000101" />
    </g>
    <g>
        <path style="opacity:0.998"
            d="M 589.5,1185.5 C 462.833,1185.5 336.167,1185.5 209.5,1185.5C 228.426,1039.09 247.926,892.758 268,746.5C 271.031,738.799 276.531,733.966 284.5,732C 361.833,731.333 439.167,731.333 516.5,732C 522.841,733.675 527.341,737.508 530,743.5C 550.488,890.735 570.321,1038.07 589.5,1185.5 Z"
            fill="#4ace99" />
    </g>
</svg>
