<svg width="19" height="19" viewBox="0 0 19 19" fill="none" xmlns="http://www.w3.org/2000/svg">
<g clip-path="url(#clip0_1209_13015)">
<path d="M9.40747 0H9.59253C11.1471 0.0197636 12.6963 0.41818 14.06 1.1674C15.6047 2.0096 16.9051 3.29199 17.7688 4.82501C18.5311 6.16489 18.9465 7.69208 19 9.23095V9.85664C18.9874 10.2591 18.9156 10.6867 18.6272 10.9899C18.1816 11.5096 17.339 11.603 16.7905 11.1934C16.4029 10.9225 16.1792 10.4419 16.2178 9.97073C16.3023 8.69868 16.0251 7.40416 15.4129 6.28527C14.7454 5.05229 13.6818 4.03806 12.4156 3.43527C11.0824 2.79161 9.53369 2.60475 8.0869 2.92097C6.77577 3.19946 5.55537 3.88444 4.63097 4.85511C3.8557 5.66856 3.28076 6.6783 3.00631 7.76979C2.6582 9.00277 2.70447 10.3373 3.0939 11.5545C3.49861 12.8234 4.29184 13.9634 5.33931 14.785C6.53007 15.7269 8.04827 16.2461 9.56693 16.2259C11.2971 16.2165 13.0112 15.5027 14.2361 14.2801C14.5451 13.9585 15.0109 13.7968 15.4524 13.87C15.9416 13.9414 16.3759 14.2967 16.5385 14.7648C16.7196 15.2467 16.5983 15.8248 16.238 16.1936C14.8011 17.6493 12.8778 18.6151 10.8525 18.8998C10.5079 18.9519 10.1598 18.9753 9.81262 19H9.14381C8.10846 18.9407 7.07716 18.748 6.1083 18.3716C4.54697 17.7765 3.14915 16.7609 2.10303 15.4578C1.05061 14.1534 0.353499 12.5661 0.107801 10.9082C0.0489598 10.5304 0.023357 10.1491 0 9.76816V9.10114C0.0332388 8.80603 0.049409 8.50868 0.091182 8.21447C0.434799 5.53605 2.01005 3.05078 4.26849 1.57435C5.7822 0.568203 7.59102 0.0215603 9.40747 0Z" fill="#24C879"/>
<path d="M9.31856 4.8857C9.55168 4.84617 9.82028 4.82596 10.0238 4.97194C10.2861 5.14802 10.4487 5.43189 10.5821 5.71083C10.8525 6.24669 11.0506 6.82702 11.4247 7.30404C11.6345 7.57849 11.9265 7.77478 12.2265 7.93872C12.7089 8.17813 13.2232 8.35556 13.6823 8.64123C13.9113 8.78541 14.0879 9.0118 14.171 9.26917C14.2657 9.70352 14.0048 10.1428 13.6297 10.3521C13.0206 10.7187 12.3065 10.8938 11.7427 11.3385C11.2882 11.7109 11.0456 12.262 10.8103 12.7853C10.6189 13.2017 10.4392 13.6414 10.106 13.968C9.8935 14.1458 9.59031 14.2761 9.31676 14.1625C9.02031 14.0708 8.82043 13.8161 8.66726 13.5601C8.3196 12.9825 8.104 12.3325 7.71546 11.7787C7.53669 11.5406 7.32558 11.3219 7.07 11.1665C6.6626 10.9136 6.20849 10.751 5.78582 10.5278C5.47409 10.3845 5.16371 10.1819 5.01279 9.86163C4.85648 9.53598 4.94946 9.13263 5.18976 8.87345C5.42378 8.61877 5.75527 8.4948 6.05712 8.34208C6.50943 8.13411 6.98331 7.95534 7.38262 7.6508C7.73208 7.37411 7.96251 6.98154 8.15206 6.58492C8.38473 6.14248 8.53745 5.65423 8.84648 5.25537C8.97045 5.09636 9.1317 4.96385 9.31856 4.8857Z" fill="#24C879"/>
</g>
<defs>
<clipPath id="clip0_1209_13015">
<rect width="19" height="19" fill="white"/>
</clipPath>
</defs>
</svg>
