<svg width="107" height="107" viewBox="0 0 107 107" fill="none" xmlns="http://www.w3.org/2000/svg">
<g clip-path="url(#clip0_56242_1787)">
<circle cx="53.5" cy="53.5" r="42.5" fill="#25C37C" fill-opacity="0.1"/>
<path d="M54.2602 66.487C61.8797 66.487 68.0566 60.3101 68.0566 52.6906C68.0566 45.0711 61.8797 38.8943 54.2602 38.8943C46.6407 38.8943 40.4639 45.0711 40.4639 52.6906C40.4639 60.3101 46.6407 66.487 54.2602 66.487Z" fill="#FFB6B6"/>
<path d="M46.3402 68.5271L45.7169 62.2266L58.1635 59.8993L65.5131 77.794L52.7312 92.4933L43.624 74.5985L46.3402 68.5271Z" fill="#FFB6B6"/>
<path d="M45.5168 65.3804L48.2379 65.9952C48.2379 65.9952 46.0988 59.2121 46.8249 58.5645C47.5509 57.9169 49.3302 58.9373 49.3302 58.9373L51.1998 61.0335L53.4772 58.7148C53.4772 58.7148 55.9497 55.6404 56.9178 54.777C57.8859 53.9135 56.3309 50.7085 56.3309 50.7085C56.3309 50.7085 70.6934 46.8357 65.3491 39.8695C65.3491 39.8695 62.2158 34.4077 61.1954 36.1869C60.175 37.9661 58.9583 35.1403 58.9583 35.1403L55.2429 35.8468C55.2429 35.8468 47.9102 31.5233 40.9506 40.7726C33.9909 50.022 45.5168 65.3804 45.5168 65.3804Z" fill="#2F2E41"/>
<path d="M80.2081 86.5653C72.6684 92.6783 63.3407 96 53.5002 96C44.5145 96 35.9554 93.2295 28.7959 88.0944C28.8087 87.9602 28.8215 87.8276 28.8327 87.6949C29.0228 85.6179 29.1921 83.5983 29.304 81.9239C29.737 75.4227 44.9044 71.0896 44.9044 71.0896C44.9044 71.0896 44.9731 71.1583 45.1105 71.2781C45.9477 72.0131 49.3461 74.6781 55.3057 75.4227C60.6198 76.0873 62.3693 72.935 62.8982 71.4251C63.0579 70.9649 63.1059 70.6566 63.1059 70.6566L78.7062 78.0238C79.724 79.4777 80.1218 82.6093 80.2001 86.1291C80.2033 86.2745 80.2065 86.4183 80.2081 86.5653Z" fill="#25C37C"/>
</g>
<circle cx="53.5" cy="53.5" r="51.1562" stroke="url(#paint0_angular_56242_1787)" stroke-width="4.6875" stroke-linecap="round"/>
<defs>
<radialGradient id="paint0_angular_56242_1787" cx="0" cy="0" r="1" gradientUnits="userSpaceOnUse" gradientTransform="translate(53.5 53.5) rotate(31.0922) scale(62.4754)">
<stop offset="0.409961" stop-color="#59D89B" stop-opacity="0.70098"/>
<stop offset="0.704093" stop-color="#D6FFEC" stop-opacity="0"/>
<stop offset="0.704587" stop-color="#24C879"/>
</radialGradient>
<clipPath id="clip0_56242_1787">
<rect width="85" height="85" fill="white" transform="translate(11 11)"/>
</clipPath>
</defs>
</svg>
