<svg width="136" height="108" viewBox="0 0 136 108" fill="none" xmlns="http://www.w3.org/2000/svg">
<path fill-rule="evenodd" clip-rule="evenodd" d="M110.96 32.077C110.96 25.3102 105.475 19.8247 98.7078 19.8247H13.4153C6.64861 19.8247 1.16309 25.3102 1.16309 32.077V68.9928C1.16309 73.8164 5.07338 77.7267 9.89697 77.7267C14.7206 77.7267 18.6309 81.637 18.6309 86.4606V88.4264C18.6309 94.3356 23.4213 99.126 29.3305 99.126H116.176C122.942 99.126 128.428 93.6405 128.428 86.8738V60.0278C128.428 55.2042 124.518 51.2939 119.694 51.2939C114.87 51.2939 110.96 47.3837 110.96 42.5601V32.077Z" fill="black"/>
<path d="M2.32617 32.0772C2.32617 25.3105 7.81169 19.825 14.5784 19.825H58.5714C71.6311 19.825 75.6281 37.5311 63.8349 43.1413L44.2081 52.4781L20.5396 65.6589C12.3729 70.2068 2.32617 64.3022 2.32617 54.9546V32.0772Z" fill="#414942"/>
<path d="M75.7365 81.6373H103.658C104.007 81.6373 104.356 81.6373 104.705 81.6373C106.101 81.6373 107.497 81.6373 108.777 81.2874C111.453 80.4711 113.663 78.2554 114.477 75.5731C114.826 74.2903 114.826 73.0075 114.826 71.6081C114.826 71.2583 114.826 71.025 114.826 70.6752V58.7801C114.826 49.2174 114.826 39.6547 114.826 30.092C114.826 28.3427 114.826 26.5935 114.128 25.0774C112.965 21.9287 109.707 19.713 106.45 19.8296C88.5338 19.8296 70.734 19.8296 52.8178 19.8296C38.6245 19.8296 24.5475 19.8296 10.3541 19.8296C8.60907 19.8296 6.86399 19.8296 5.46792 20.4127C2.32677 21.5789 0.116339 24.7276 0 28.1095V73.9405C0.232678 75.923 1.04705 77.7889 2.32678 79.0717C3.95552 80.821 6.28229 81.8705 8.72541 81.7539H52.2361C52.9341 81.7539 53.5158 81.6373 53.8648 81.1708C54.3302 80.7044 54.3302 79.888 54.3302 79.1883V78.7218C54.3302 78.0221 54.3302 77.3224 54.3302 76.7393C54.3302 75.923 54.3302 75.1067 54.3302 74.1737C54.3302 73.3574 53.6322 72.5411 52.8178 72.5411C52.0034 72.4245 51.0727 73.1242 51.0727 73.9405C50.9564 74.7568 50.9564 75.5732 51.0727 76.3895C51.0727 76.8559 51.0727 77.3224 51.0727 77.7889V78.372H38.2755C28.3867 78.372 18.6142 78.372 8.72541 78.372C7.44568 78.372 6.04962 77.9055 5.11891 76.8559C4.07186 75.8064 3.6065 74.5236 3.6065 73.2408C3.6065 58.3136 3.6065 43.5031 3.6065 28.576C3.6065 26.5935 4.65355 24.7276 6.39863 23.9112C7.44568 23.3281 8.72541 23.3281 9.88879 23.3281C10.1215 23.3281 10.3541 23.3281 10.5868 23.3281C18.2652 23.3281 25.9435 23.3281 33.6219 23.3281H51.1891V23.9112C51.1891 24.3777 51.1891 24.8442 51.1891 25.194C51.1891 25.8937 51.1891 26.7101 51.1891 27.4098C51.1891 28.2261 52.0034 28.9258 52.8178 28.9258C53.6322 29.0424 54.4465 28.3427 54.5629 27.5264C54.6792 26.7101 54.6792 26.0104 54.5629 25.194C54.5629 24.7276 54.5629 24.2611 54.5629 23.7946V23.2115H106.334C108.195 23.0949 110.056 24.2611 110.987 26.0104C111.569 27.1765 111.569 28.3427 111.569 29.5089C111.569 29.7421 111.569 30.092 111.569 30.3252C111.569 43.9696 111.569 57.6139 111.569 71.1417C111.569 71.3749 111.569 71.6081 111.569 71.8414C111.569 73.0075 111.569 74.2903 110.987 75.4565C110.056 77.2058 108.195 78.372 106.101 78.2554H93.8854C87.3704 78.2554 80.7391 78.2554 74.2241 78.2554H74.1078C73.6424 78.2554 73.1771 78.4886 72.9444 78.7218C72.5954 79.0717 72.479 79.5382 72.479 79.888C72.479 82.5702 72.479 85.2525 72.479 87.9347V89.1009C72.3627 90.0338 73.0607 90.8502 73.8751 90.9668C74.3405 91.0834 74.8058 90.9668 75.2712 90.6169C75.6202 90.2671 75.8529 89.9172 75.8529 89.4507C75.8529 88.0513 75.8529 86.6519 75.8529 85.2525C75.8529 84.2029 75.8529 83.27 75.8529 82.2204L75.7365 81.6373Z" fill="#717972"/>
<path d="M52.9341 47.7014C53.7485 47.5848 54.3302 46.7684 54.3302 45.9521C54.3302 44.9025 54.3302 43.7363 54.3302 42.6868C54.3302 40.5877 54.3302 38.4885 54.3302 36.506C54.3302 36.0395 53.9812 35.5731 53.5158 35.2232C53.1668 34.99 52.9341 34.99 52.5851 34.99C52.3524 34.99 52.2361 34.99 52.0034 35.1066C51.3054 35.3398 50.84 36.0395 50.9564 36.7392V38.8384C50.9564 41.2874 50.9564 43.7363 50.9564 46.1853C50.9564 46.6518 51.1891 47.1183 51.5381 47.4681C52.0034 47.7014 52.4688 47.818 52.9341 47.7014Z" fill="#717972"/>
<path d="M91.6749 41.5206C88.5338 41.5206 85.3926 41.5206 82.3678 41.5206C78.7613 41.5206 75.1548 41.5206 71.5483 41.5206H71.3157C70.9666 41.5206 70.5013 41.5206 70.2686 41.6372C69.5706 41.9871 69.1052 42.8034 69.3379 43.5031C69.4542 44.3194 70.2686 44.9025 71.083 44.9025C78.0633 44.9025 84.9273 44.9025 91.7913 44.9025C92.2566 44.9025 92.722 44.7859 93.071 44.4361C93.42 44.0862 93.6527 43.6197 93.5364 43.1533C93.5364 42.6868 93.3037 42.2203 92.9547 41.9871C92.6057 41.7538 92.1403 41.5206 91.6749 41.5206Z" fill="#006D41"/>
<path d="M127.275 107.993C130.067 108.11 132.626 106.71 134.255 104.611C135.186 103.328 135.884 101.812 136 99.9464V53.8821C135.651 50.267 132.743 46.885 129.02 46.1853C128.089 46.0687 126.926 45.9521 126.111 46.6518C125.762 47.0017 125.646 47.5848 125.762 48.0512C125.879 48.6343 126.228 49.1008 126.693 49.334C127.042 49.4506 127.391 49.4506 127.856 49.5673C128.438 49.6839 129.02 49.6839 129.601 49.9171C131.579 50.7334 132.743 52.8326 132.626 54.9317C132.626 61.3457 132.626 67.7597 132.626 74.1737C132.626 82.5702 132.626 90.9668 132.626 99.2467C132.626 100.529 132.161 101.929 131.114 102.862C130.067 103.911 128.787 104.378 127.507 104.378C115.99 104.378 104.472 104.378 92.9547 104.378H75.7365V103.795C75.7365 103.328 75.7365 102.745 75.7365 102.162C75.7365 101.229 75.8529 100.296 75.5039 99.4799C75.2712 98.8968 74.5731 98.6636 73.9914 98.6636C73.4098 98.6636 72.8281 98.8968 72.479 99.5965C72.2464 100.413 72.2464 101.346 72.2464 102.279C72.2464 102.862 72.2464 103.328 72.2464 103.911V104.494H58.053C48.6296 104.494 39.0898 104.494 29.6664 104.494C27.1069 104.611 24.7802 102.395 24.5475 99.8298C24.4311 98.7802 24.4311 97.7306 24.5475 96.6811C24.5475 95.7481 24.5475 94.8152 24.5475 93.8822C24.5475 93.0659 23.8494 92.3662 23.0351 92.3662C22.2207 92.2496 21.4063 92.9493 21.29 93.7656C21.1737 94.4653 21.1737 95.165 21.1737 95.8647C21.1737 96.2146 21.1737 96.5645 21.1737 96.9143V97.7306C21.1737 99.3633 21.1737 100.996 21.7553 102.512C22.9187 105.661 26.2926 107.993 29.6664 107.993C29.6664 107.993 29.6664 107.993 29.7827 107.993C49.3276 107.993 68.8725 107.993 88.4174 107.993H127.275Z" fill="#717972"/>
<path d="M52.9341 66.5935C53.7485 66.4769 54.3302 65.6606 54.3302 64.8443C54.3302 63.7947 54.3302 62.7451 54.3302 61.8122C54.3302 59.7131 54.3302 57.4973 54.3302 55.3982C54.3302 54.9317 53.9812 54.4652 53.5158 54.1154C53.1668 53.8821 52.9341 53.8821 52.5851 53.8821C52.3524 53.8821 52.2361 53.8821 52.0034 53.9988C51.3054 54.232 50.84 54.9317 50.9564 55.6314V58.0804C50.9564 60.4128 50.9564 62.7451 50.9564 65.0775C50.9564 65.544 51.1891 66.0104 51.5381 66.3603C52.0034 66.5935 52.4688 66.7102 52.9341 66.5935Z" fill="#717972"/>
<path d="M81.4371 56.4477C80.0411 56.4477 78.645 56.4477 77.1326 56.4477C74.9222 56.4477 72.5954 56.4477 70.3849 56.5644C69.5706 56.7976 69.1052 57.6139 69.2216 58.4303C69.3379 59.2466 70.1523 59.9463 70.9666 59.8297C73.0607 59.8297 75.0385 59.8297 77.1326 59.8297C77.947 59.8297 78.645 59.8297 79.4594 59.8297C80.5064 59.8297 81.5535 59.8297 82.6005 59.8297C83.2985 59.8297 83.9966 59.8297 84.3456 59.3632C84.6946 59.0133 84.9273 58.5469 84.9273 58.0804C84.9273 57.6139 84.6946 57.0308 84.3456 56.7976C83.7639 56.3311 83.0659 56.3311 82.2515 56.4477C82.0188 56.4477 81.6698 56.4477 81.4371 56.4477Z" fill="#006D41"/>
<path d="M13.6116 53.7655C13.2626 52.8326 12.7973 51.783 12.0992 51.0833C11.6339 50.9667 11.1685 51.0833 10.8195 51.3165C10.4705 51.5498 10.2378 52.0162 10.1215 52.4827C10.9358 55.2816 12.0992 58.5469 14.8914 59.9463C17.2181 61.2291 19.7776 60.2961 21.0573 59.5964C25.3618 57.4973 29.7827 55.3982 34.0873 53.4157L40.2532 50.5002C40.8349 50.267 42.6963 49.334 42.6963 47.4681C42.8127 46.3019 42.58 45.4856 42.1146 44.6693C41.6493 43.9696 40.9512 43.5031 40.0205 43.1533C38.8571 42.8034 37.5774 42.92 35.716 43.6197C35.018 43.853 34.3199 44.2028 33.7382 44.5527L33.5056 44.6693C32.9239 45.0191 32.2258 45.2524 31.6441 45.4856L31.2951 45.6022L31.0624 45.369C30.0154 44.5527 29.0847 43.6197 28.2703 42.6868C27.9213 42.3369 27.4559 41.8705 27.1069 41.5206C25.8272 40.2378 24.4311 39.0716 22.6861 38.6051C21.5227 38.2553 20.3593 38.955 19.6612 39.6547C18.9632 40.3544 18.3815 41.6372 18.8469 42.92C19.7776 45.0191 21.0573 46.885 22.4534 48.8676L22.8024 49.334L22.337 49.6839C21.4063 50.3836 20.1266 50.9667 18.9632 51.5498L18.7305 51.6664C18.1488 51.8996 17.6835 52.1329 17.2181 52.3661C16.7528 52.5993 16.4038 52.8326 16.0547 53.0658C15.9384 53.5323 16.0547 54.1154 16.2874 54.4652C16.4038 54.6985 16.5201 54.8151 16.7528 54.9317C16.9855 55.0483 17.2181 55.0483 17.4508 54.9317C19.3122 54.4652 20.8246 53.6489 22.4534 52.716L23.1514 52.3661C23.9658 52.0162 24.6638 51.3165 25.0128 50.6168C25.3618 49.8005 25.4782 48.9842 25.1292 48.1678C24.6638 47.3515 23.9658 46.1853 23.2677 45.2524L22.9187 44.6693C22.5697 44.2028 22.2207 43.6197 21.8717 43.1533C21.7553 42.92 21.639 42.6868 21.639 42.5702C21.5227 42.3369 21.5227 42.1037 21.639 41.9871C21.7553 41.8705 21.7553 41.7538 21.988 41.6372L22.1044 41.5206H22.4534C22.6861 41.5206 23.0351 41.6372 23.3841 41.9871C23.9658 42.4535 24.7802 43.1533 25.5945 44.2028L26.2926 44.9025C26.9906 45.6022 27.6886 46.3019 28.2703 47.0017C29.3174 48.0512 30.1317 48.7509 30.8298 49.1008C31.5278 48.9842 32.2258 48.7509 33.1565 48.4011C33.7382 48.1678 34.3199 47.9346 34.9016 47.5848C35.2506 47.4681 35.5997 47.2349 35.9487 47.1183C36.763 46.7684 37.5774 46.4186 38.2755 46.3019C38.6245 46.1853 38.9735 46.3019 39.2062 46.3019C39.5552 46.4186 39.7879 46.6518 39.9042 46.885C40.0205 47.1183 40.0205 47.3515 39.9042 47.4681C39.9042 47.5848 39.7879 47.818 39.5552 47.9346C39.3225 48.1678 38.9735 48.4011 38.3918 48.6343C37.9264 48.8676 37.4611 48.9842 36.9957 49.2174C36.414 49.4506 35.9487 49.5673 35.5997 49.8005C33.0402 50.9667 30.4808 52.2495 27.9213 53.4157L27.6886 53.5323C25.0128 54.8151 22.4534 56.0979 19.7776 57.2641C18.2652 58.0804 16.5201 57.8472 15.2404 56.7976C14.426 55.8647 14.077 54.8151 13.6116 53.7655Z" fill="#717972"/>
<ellipse cx="111.685" cy="20.4084" rx="18.6142" ry="18.0758" fill="#005230"/>
<path d="M118.255 14.3535C119.098 13.6295 120.687 14.0656 120.932 15.0657C121.151 15.6988 120.733 16.3117 120.2 16.7124C117.385 19.1504 114.587 21.6036 111.774 24.0433C111.149 24.6427 109.964 24.6394 109.353 24.0265C107.965 22.7654 106.581 21.4992 105.2 20.2331C104.574 19.7195 104.531 18.7867 105.125 18.2429C105.717 17.6368 106.89 17.6115 107.513 18.1958C108.555 19.1184 109.564 20.0697 110.596 21.0008C113.16 18.7952 115.683 16.5524 118.255 14.3535Z" fill="#717972"/>
<path d="M106.474 0.717588C111.604 -0.74874 117.31 0.0666981 121.86 2.8476C124.915 4.69422 127.468 7.37091 129.147 10.5266C130.608 13.249 131.38 16.3188 131.462 19.405V20.8494C131.238 23.9887 130.367 27.0969 128.756 29.8119C126.957 32.8964 124.311 35.478 121.184 37.1966C118.347 38.7763 115.113 39.5881 111.874 39.6502H111.456C108.264 39.5826 105.081 38.7873 102.278 37.2441C99.1356 35.542 96.473 32.9677 94.6554 29.8869C92.4618 26.2028 91.5366 21.7874 92.0421 17.5292C92.5841 12.7572 94.9364 8.21926 98.5261 5.03612C98.8874 4.70154 99.3856 4.51139 99.8802 4.60829C100.694 4.72713 101.305 5.57731 101.152 6.39092C101.077 6.98696 100.577 7.37274 100.178 7.76401C96.7468 10.9965 94.8324 15.7557 95.035 20.4673C95.1572 24.0051 96.4602 27.4845 98.6757 30.2416C100.917 33.0499 104.079 35.1178 107.565 35.9936C110.947 36.8693 114.607 36.639 117.85 35.3299C121.155 34.0135 124.011 31.6019 125.871 28.5632C129.262 23.1915 129.145 15.8672 125.573 10.6126C123.553 7.56106 120.509 5.20433 117.051 4.01774C114.169 3.02129 111.009 2.84212 108.038 3.54054C107.64 3.62648 107.244 3.74715 106.831 3.74715C106.092 3.72886 105.444 3.09443 105.379 2.36126C105.287 1.64455 105.769 0.900422 106.474 0.717588Z" fill="#717972"/>
</svg>
