<svg width="185" height="128" viewBox="0 0 185 128" fill="none" xmlns="http://www.w3.org/2000/svg">
<g clip-path="url(#clip0_55987_1608)">
<path d="M18.2734 118.611C18.3532 121.597 18.8525 124.556 19.7566 127.401C19.7766 127.467 19.7989 127.532 19.8205 127.599H25.3551C25.3493 127.539 25.3433 127.473 25.3375 127.401C24.9685 123.152 27.0766 97.5992 29.6205 93.1767C29.3976 93.5354 17.8443 105.11 18.2734 118.611Z" fill="#E6E6E6"/>
<path d="M18.6887 127.401C18.735 127.467 18.7831 127.533 18.8324 127.598H22.9845C22.9531 127.542 22.9166 127.476 22.8743 127.401C22.1884 126.162 20.1582 122.454 18.2738 118.611C16.2494 114.482 14.3906 110.195 14.5471 108.644C14.4986 108.993 13.0972 119.66 18.6887 127.401Z" fill="#E6E6E6"/>
<path d="M85.9893 123.033C86.0299 124.549 86.2836 126.053 86.7429 127.498C86.7531 127.532 86.7644 127.565 86.7754 127.599H89.5873C89.5843 127.568 89.5813 127.535 89.5783 127.498C89.3908 125.34 90.4619 112.357 91.7544 110.11C91.6411 110.292 85.7713 116.173 85.9893 123.033Z" fill="#E6E6E6"/>
<path d="M86.201 127.498C86.2245 127.532 86.249 127.565 86.274 127.599H88.3836C88.3676 127.57 88.3491 127.536 88.3276 127.498C87.9791 126.868 86.9477 124.985 85.9902 123.033C84.9617 120.934 84.0173 118.757 84.0969 117.968C84.0722 118.146 83.3602 123.565 86.201 127.498Z" fill="#E6E6E6"/>
<path d="M69.343 36.5683L62.1855 41.6674L66.6392 42.1451L72.8426 36.8875L69.343 36.5683Z" fill="#3F3D56"/>
<path d="M41.3397 123.632L45.6446 123.632L47.6926 107.001L41.3389 107.001L41.3397 123.632Z" fill="#9F616A"/>
<path d="M40.2422 122.224L48.7202 122.224H48.7205C50.1534 122.224 51.5276 122.794 52.5408 123.809C53.554 124.824 54.1232 126.2 54.1233 127.635V127.811L40.2424 127.811L40.2422 122.224Z" fill="#2F2E41"/>
<path d="M38.6336 64.2294C38.6336 64.2294 36.7679 66.3417 39.8572 74.5758L39.313 119.725L49.3247 119.53L51.5254 97.5061L55.5321 65.3675L38.6336 64.2294Z" fill="#2F2E41"/>
<path d="M28.638 57.1021C28.0465 57.1005 27.4789 56.8681 27.0557 56.4542C26.6325 56.0403 26.3869 55.4775 26.3712 54.8853L25.9014 37.1514L33.9405 21.8756C34.123 21.5316 34.3901 21.2399 34.7165 21.0281C35.0429 20.8163 35.4179 20.6913 35.8059 20.665L41.9325 20.2711L41.4034 56.0179L28.8373 57.0936C28.7706 57.0994 28.7041 57.1022 28.638 57.1021Z" fill="#24C77A"/>
<path d="M58.9654 70.4716L58.8557 70.4548C46.0481 68.4984 36.3832 66.6228 36.2871 66.6041L36.167 66.5808L39.5244 58.4017C39.4979 57.547 38.7711 33.5471 40.1624 26.6516C41.5092 19.9764 47.8577 18.8825 48.5812 18.7796L49.3076 16.3689L58.4849 21.1519L60.0855 26.6694L60.4106 41.7913L58.9654 70.4716Z" fill="#3F3D56"/>
<path d="M46.354 47.5781C40.4413 47.5781 35.6309 41.139 35.6309 33.2244C35.6309 25.3097 40.4413 18.8706 46.354 18.8706C52.2668 18.8706 57.0772 25.3097 57.0772 33.2244C57.0772 41.139 52.2668 47.5781 46.354 47.5781ZM46.354 20.2759C41.2149 20.2759 37.0339 26.0846 37.0339 33.2244C37.0339 40.3642 41.2149 46.1728 46.354 46.1728C51.4932 46.1728 55.6742 40.3642 55.6742 33.2244C55.6742 26.0846 51.4932 20.2759 46.354 20.2759Z" fill="#24C77A"/>
<path d="M64.4928 39.3473C64.0795 39.3472 63.6707 39.4328 63.2921 39.5986C62.9134 39.7645 62.5731 40.007 62.2926 40.311H46.8671L41.2168 41.5157L42.1445 48.6822L62.2442 44.3527C62.577 44.7291 62.9986 45.016 63.4706 45.1873C63.9425 45.3585 64.4498 45.4086 64.9461 45.333C65.4423 45.2574 65.9118 45.0585 66.3116 44.7544C66.7113 44.4503 67.0287 44.0508 67.2347 43.5923C67.4406 43.1338 67.5287 42.6309 67.4907 42.1296C67.4527 41.6283 67.29 41.1445 67.0173 40.7223C66.7447 40.3002 66.3708 39.9532 65.9298 39.713C65.4888 39.4728 64.9948 39.3471 64.4928 39.3473Z" fill="#9F616A"/>
<path d="M63.3603 15.3534C66.2636 12.4455 66.2636 7.73091 63.3603 4.82304C60.4571 1.91517 55.7499 1.91517 52.8467 4.82304C49.9434 7.73092 49.9434 12.4455 52.8467 15.3534C55.7499 18.2613 60.4571 18.2613 63.3603 15.3534Z" fill="#9F616A"/>
<path d="M51.1113 4.13546L50.7509 3.40891L52.5643 2.50646C52.5643 2.50646 54.5649 -0.753855 58.185 0.162364C61.8051 1.07858 63.4339 1.62692 63.4339 1.62692L65.2428 2.53855L64.3349 3.44329L65.9636 3.99165L64.8755 4.53312L66.1415 5.26195L65.46 8.99823C65.46 8.99823 64.3281 6.16441 62.1519 7.24735C59.9757 8.33028 55.9951 6.68754 55.9951 6.68754L52.5369 13.3909C52.5369 13.3909 51.8235 11.041 50.5515 11.6676C50.5515 11.6676 47.3018 6.48412 51.1113 4.13546Z" fill="#2F2E41"/>
<path d="M115.709 49.9767L115.391 44.0076L112.184 41.3979L110.326 46.9253L99.9355 60.8059C99.4442 60.8847 98.9858 61.1029 98.6144 61.4345C98.243 61.7661 97.9743 62.1973 97.8399 62.6771C97.7056 63.1569 97.7112 63.6653 97.8563 64.1419C98.0013 64.6186 98.2797 65.0437 98.6584 65.3669C99.0371 65.6901 99.5003 65.8979 99.9932 65.9657C100.486 66.0335 100.988 65.9584 101.44 65.7494C101.891 65.5404 102.274 65.2062 102.542 64.7863C102.81 64.3664 102.952 63.8785 102.952 63.3801C102.952 63.345 102.948 63.3109 102.947 63.2761L115.709 49.9767Z" fill="#FFB7B7"/>
<path d="M121.884 125.206L119.427 125.206L118.258 115.713L121.884 115.713L121.884 125.206Z" fill="#FFB7B7"/>
<path d="M122.511 127.592L114.588 127.591V127.491C114.588 126.672 114.913 125.886 115.491 125.307C116.07 124.728 116.854 124.402 117.672 124.402L122.511 124.402L122.511 127.592Z" fill="#2F2E41"/>
<path d="M133.309 125.206L130.852 125.206L129.683 115.713L133.309 115.713L133.309 125.206Z" fill="#FFB7B7"/>
<path d="M133.936 127.592L126.013 127.591V127.491C126.013 126.672 126.338 125.886 126.916 125.307C127.494 124.728 128.279 124.402 129.097 124.402L133.936 124.402L133.936 127.592Z" fill="#2F2E41"/>
<path d="M130.711 25.041C131.752 20.7386 132.633 15.886 130.671 11.9234C129.31 9.17403 124.274 8.24815 121.387 9.23866C118.5 10.2292 116.413 12.9165 115.495 15.8465C114.577 18.7765 114.683 21.9338 115.083 24.9797C120.393 24.8776 125.702 24.7754 130.711 25.041Z" fill="#2F2E41"/>
<path d="M124.722 24.2799C127.722 22.6371 128.825 18.8693 127.185 15.8642C125.544 12.8591 121.783 11.7546 118.782 13.3974C115.782 15.0401 114.679 18.808 116.319 21.8131C117.96 24.8182 121.721 25.9226 124.722 24.2799Z" fill="#FFB8B8"/>
<path d="M129.32 17.5612C129.34 16.5175 129.15 15.4805 128.762 14.5118C128.373 13.5431 127.794 12.6625 127.06 11.9223C126.325 11.182 125.449 10.5973 124.484 10.2028C123.519 9.80831 122.485 9.61212 121.443 9.62588C120.4 9.63964 119.372 9.86307 118.418 10.2829C117.463 10.7027 116.603 11.3104 115.888 12.0698C115.173 12.8291 114.617 13.7247 114.255 14.7034C113.892 15.682 113.729 16.7236 113.777 17.7664C119.076 17.7777 124.375 17.789 129.32 17.5612Z" fill="#2F2E41"/>
<path d="M111.81 56.1993C111.81 56.1993 110.802 70.8565 111.349 75.3276C111.896 79.7987 117.849 118.887 117.849 118.887L122.34 118.879L123.673 72.8159L128.983 119.327L133.627 118.843L136.262 73.347C136.262 73.347 135.848 56.3139 132.491 54.6059L111.81 56.1993Z" fill="#2F2E41"/>
<path d="M118.853 70.7285C115.555 70.7274 112.304 69.939 109.371 68.4286L109.307 68.3958L111.789 51.8996L111.628 32.2393C111.623 31.6997 111.726 31.1646 111.93 30.6653C112.135 30.1659 112.436 29.7123 112.817 29.3309C113.199 28.9495 113.652 28.648 114.151 28.4439C114.649 28.2398 115.184 28.1372 115.722 28.1422L129.041 28.2646C129.631 28.27 130.213 28.3969 130.752 28.6374C131.291 28.8779 131.774 29.2268 132.172 29.6625C132.57 30.0982 132.875 30.6112 133.067 31.1698C133.258 31.7284 133.333 32.3205 133.287 32.9093L132.04 48.6704L136.162 61.463L135.446 62.4169C133.514 64.9975 131.009 67.0921 128.129 68.5348C125.249 69.9774 122.073 70.7285 118.853 70.7285Z" fill="#3F3D56"/>
<path d="M110.289 45.1035L111.685 30.8397L112.133 30.2003C112.441 29.7625 112.831 29.3897 113.283 29.1035C113.734 28.8172 114.238 28.6231 114.764 28.5322C115.291 28.4413 115.83 28.4555 116.351 28.574C116.872 28.6924 117.365 28.9128 117.801 29.2224L118.185 29.4956L117.806 43.9507L110.289 45.1035Z" fill="#3F3D56"/>
<path d="M167.478 114.791C171.086 113.793 172.626 119.28 169.027 120.31C165.419 121.309 163.88 115.821 167.478 114.791Z" fill="#3F3D56"/>
<path d="M147.473 121.854C151.081 120.856 152.621 126.343 149.022 127.374C145.414 128.372 143.875 122.884 147.473 121.854Z" fill="#3F3D56"/>
<path d="M139.378 63.9758L139.433 63.96L148.727 89.231L149.952 88.8861L140.592 63.4339C140.572 63.0416 140.418 62.668 140.157 62.3753C139.895 62.0825 139.542 61.8881 139.155 61.8243C134.507 61.0882 132.623 65.2204 132.623 65.2204L132.642 65.2479L142.143 91.0845L143.368 90.7395L134.147 65.6632C136.954 62.882 139.378 63.9758 139.378 63.9758Z" fill="#3F3D56"/>
<path d="M150.028 123.275C148.702 123.264 147.415 122.829 146.353 122.033C145.291 121.237 144.511 120.123 144.125 118.852C142.352 113.038 138.167 99.1053 137.612 95.3244C136.89 90.4015 140.958 89.0015 141.049 88.9715C141.159 88.9346 142.794 88.4761 145.058 87.8415C148.906 86.7628 154.722 85.1327 154.935 85.0365C155.836 84.7227 156.792 84.5987 157.744 84.6723C158.695 84.7459 159.62 85.0154 160.463 85.464C161.331 85.9214 162.097 86.5508 162.715 87.314C163.332 88.0772 163.788 88.9582 164.056 89.9035L170.042 111.234C170.411 112.542 170.307 113.938 169.749 115.176C169.191 116.415 168.214 117.416 166.99 118.004C162.372 120.226 155.597 123.191 150.119 123.275C150.089 123.275 150.059 123.275 150.028 123.275Z" fill="#24C77A"/>
<path d="M138.388 63.1017L135.379 45.4962L135.044 39.5546L130.179 41.1506L134.282 64.2037C134.116 64.6524 134.077 65.138 134.168 65.6075C134.26 66.077 134.478 66.5123 134.8 66.8658C135.122 67.2192 135.534 67.4773 135.992 67.6118C136.451 67.7462 136.937 67.7518 137.398 67.628C137.86 67.5043 138.278 67.2558 138.608 66.9099C138.938 66.5639 139.166 66.1338 139.269 65.6666C139.371 65.1993 139.343 64.7129 139.187 64.2606C139.032 63.8082 138.756 63.4073 138.388 63.1017Z" fill="#FFB7B7"/>
<path d="M136.203 44.3919L128.61 43.9783L126.826 29.6289L127 29.478C127.427 29.1066 127.924 28.8233 128.461 28.6446C128.998 28.4659 129.565 28.3952 130.13 28.4365C130.694 28.4779 131.245 28.6305 131.751 28.8856C132.256 29.1407 132.706 29.4933 133.075 29.9231L133.426 30.3323L133.432 30.3582L136.203 44.3919Z" fill="#3F3D56"/>
<path d="M167.123 114.485L159.362 88.1762L141.113 93.3418L141.004 92.9555L159.634 87.682L159.691 87.8723L167.507 114.371L167.123 114.485Z" fill="#3F3D56"/>
<path d="M29.217 55.2159L28.3906 37.1681L36.8553 20.5953L37.2121 20.7782L28.7961 37.256L29.6175 55.1974L29.217 55.2159Z" fill="#3F3D56"/>
<path d="M184.8 128H0.200433C0.147275 128 0.096294 127.979 0.0587054 127.941C0.0211169 127.904 0 127.852 0 127.799C0 127.746 0.0211169 127.695 0.0587054 127.657C0.096294 127.62 0.147275 127.598 0.200433 127.598H184.8C184.853 127.598 184.904 127.62 184.941 127.657C184.979 127.695 185 127.746 185 127.799C185 127.852 184.979 127.904 184.941 127.941C184.904 127.979 184.853 128 184.8 128Z" fill="#CCCCCC"/>
<path d="M42.2435 50.0256L40.4794 44.77L40.0527 27.2507L40.8044 24.7651C41.0749 23.8704 41.523 23.0397 42.1218 22.3227C42.7205 21.6056 43.4577 21.0171 44.289 20.5922C45.1203 20.1673 46.0287 19.915 46.9598 19.8502C47.8908 19.7854 48.8254 19.9095 49.7074 20.2152C50.5894 20.5208 51.4007 21.0016 52.0927 21.6288C52.7847 22.2561 53.3432 23.0167 53.7346 23.8653C54.1261 24.7139 54.3425 25.6329 54.3708 26.5672C54.3992 27.5016 54.2389 28.432 53.8996 29.3029L49.871 39.6427L50.0757 40.0408L58.8038 39.97L61.9041 45.5595L42.2435 50.0256Z" fill="#3F3D56"/>
<path d="M97.8449 87.4257L97.8388 87.4269L88.1649 89.3666L79.8431 92.7233C79.7355 92.7667 79.6205 92.7884 79.5045 92.7873C79.3885 92.7861 79.2739 92.7621 79.1672 92.7166C79.0605 92.6711 78.9638 92.6049 78.8826 92.522C78.8014 92.4391 78.7373 92.3409 78.694 92.2331C78.6838 92.2078 78.6748 92.1821 78.667 92.1559L72.5876 71.7671C72.5237 71.5559 72.5413 71.3283 72.6369 71.1295C72.7325 70.9306 72.8992 70.775 73.1039 70.6934L81.578 67.2754L81.5842 67.2742L91.258 65.3344L99.5797 61.9778C99.797 61.8902 100.04 61.8926 100.256 61.9845C100.471 62.0764 100.641 62.2503 100.729 62.4679C100.739 62.4933 100.748 62.519 100.756 62.5452L106.835 82.934C106.899 83.1452 106.882 83.3728 106.786 83.5716C106.69 83.7704 106.524 83.9261 106.319 84.0077L97.8449 87.4257Z" fill="#E5E5E5"/>
<path d="M87.4641 73.7303C85.2458 72.9462 82.9529 72.2593 80.6497 71.6888L80.5341 71.6602L81.7035 75.5819L87.6611 73.7999L87.4641 73.7303ZM81.7948 75.4126L80.7324 71.8498C82.9246 72.3963 85.1061 73.0483 87.2219 73.7892L81.7948 75.4126ZM99.0885 79.0317C98.0559 78.4469 97.0084 77.8868 95.9461 77.3516C95.6532 77.2038 95.3594 77.0581 95.0646 76.9147C93.2658 76.0381 91.4394 75.239 89.5856 74.5174L89.5639 74.509L82.0534 76.7555L84.1044 83.6341L99.2276 79.1105L99.0885 79.0317ZM84.1957 83.4648L82.2225 76.847L89.5582 74.6527C91.3459 75.349 93.1131 76.1203 94.86 76.9666C95.1633 77.1135 95.4654 77.2625 95.7665 77.4138C96.8186 77.9413 97.8572 78.494 98.8824 79.0717L84.1957 83.4648ZM99.0885 79.0317C98.0559 78.4469 97.0084 77.8868 95.9461 77.3516C95.6532 77.2038 95.3594 77.0581 95.0646 76.9147C93.2658 76.0381 91.4394 75.239 89.5856 74.5174L89.5639 74.509L82.0534 76.7555L84.1044 83.6341L99.2276 79.1105L99.0885 79.0317ZM84.1957 83.4648L82.2225 76.847L89.5582 74.6527C91.3459 75.349 93.1131 76.1203 94.86 76.9666C95.1633 77.1135 95.4654 77.2625 95.7665 77.4138C96.8186 77.9413 97.8572 78.494 98.8824 79.0717L84.1957 83.4648ZM87.4641 73.7303C85.2458 72.9462 82.9529 72.2593 80.6497 71.6888L80.5341 71.6602L81.7035 75.5819L87.6611 73.7999L87.4641 73.7303ZM81.7948 75.4126L80.7324 71.8498C82.9246 72.3963 85.1061 73.0483 87.2219 73.7892L81.7948 75.4126ZM87.4641 73.7303C85.2458 72.9462 82.9529 72.2593 80.6497 71.6888L80.5341 71.6602L81.7035 75.5819L87.6611 73.7999L87.4641 73.7303ZM81.7948 75.4126L80.7324 71.8498C82.9246 72.3963 85.1061 73.0483 87.2219 73.7892L81.7948 75.4126ZM99.0885 79.0317C98.0559 78.4469 97.0084 77.8868 95.9461 77.3516C95.6532 77.2038 95.3594 77.0581 95.0646 76.9147C93.2658 76.0381 91.4394 75.239 89.5856 74.5174L89.5639 74.509L82.0534 76.7555L84.1044 83.6341L99.2276 79.1105L99.0885 79.0317ZM84.1957 83.4648L82.2225 76.847L89.5582 74.6527C91.3459 75.349 93.1131 76.1203 94.86 76.9666C95.1633 77.1135 95.4654 77.2625 95.7665 77.4138C96.8186 77.9413 97.8572 78.494 98.8824 79.0717L84.1957 83.4648ZM78.0105 86.7352L78.0493 86.8656L83.1913 85.3275L83.7551 87.2183L78.6131 88.7564L78.652 88.8868L83.9242 87.3098L83.2826 85.1582L78.0105 86.7352ZM85.4458 88.1329L85.8398 89.4541L85.9664 89.4031L85.6149 88.2243L105.665 82.2271L105.626 82.0967L85.4458 88.1329ZM104.673 78.9019L104.634 78.7715L84.4543 84.8077L85.0959 86.9593L105.276 80.9231L105.237 80.7927L85.1872 86.7899L84.6234 84.8991L104.673 78.9019ZM89.6861 73.0521C86.613 71.8695 83.4562 70.9177 80.242 70.2048L79.8483 68.8845L79.7217 68.9355L80.1184 70.266L80.2516 70.3464C83.4534 71.0585 86.5979 72.0081 89.659 73.1874L89.6807 73.1958L101.883 69.5458L101.844 69.4154L89.6861 73.0521ZM80.3627 75.841L75.2207 77.379L75.2596 77.5094L80.5317 75.9324L78.5824 69.3948L78.4558 69.4459L80.3627 75.841ZM102.233 70.7194L91.5057 73.9282L91.6804 74.0016C93.3258 74.695 94.9668 75.4616 96.6036 76.3013C96.8363 76.4206 97.0687 76.5415 97.301 76.664C98.4564 77.2718 99.6028 77.9134 100.74 78.5887L100.867 78.6202L104.284 77.5979L104.245 77.4675L100.836 78.4873C99.7105 77.8184 98.5746 77.1817 97.4282 76.5773C97.199 76.4563 96.9694 76.3366 96.7395 76.2184C95.1373 75.3941 93.5266 74.638 91.9072 73.9501L102.272 70.8497L102.233 70.7194ZM79.0019 90.0604L79.0408 90.1908L84.1828 88.6527L84.5739 89.9645L84.7005 89.9135L84.2741 88.4834L79.0019 90.0604ZM75.6095 78.683L75.6484 78.8134L80.7904 77.2754L82.7636 83.8931L77.6216 85.4312L77.6605 85.5616L82.9327 83.9846L80.8817 77.106L75.6095 78.683ZM87.4641 73.7303C85.2458 72.9462 82.9529 72.2593 80.6497 71.6888L80.5341 71.6602L81.7035 75.5819L87.6611 73.7999L87.4641 73.7303ZM81.7948 75.4126L80.7324 71.8498C82.9246 72.3963 85.1061 73.0483 87.2219 73.7892L81.7948 75.4126ZM99.0885 79.0317C98.0559 78.4469 97.0084 77.8868 95.9461 77.3516C95.6532 77.2038 95.3594 77.0581 95.0646 76.9147C93.2658 76.0381 91.4394 75.239 89.5856 74.5174L89.5639 74.509L82.0534 76.7555L84.1044 83.6341L99.2276 79.1105L99.0885 79.0317ZM84.1957 83.4648L82.2225 76.847L89.5582 74.6527C91.3459 75.349 93.1131 76.1203 94.86 76.9666C95.1633 77.1135 95.4654 77.2625 95.7665 77.4138C96.8186 77.9413 97.8572 78.494 98.8824 79.0717L84.1957 83.4648ZM87.4641 73.7303C85.2458 72.9462 82.9529 72.2593 80.6497 71.6888L80.5341 71.6602L81.7035 75.5819L87.6611 73.7999L87.4641 73.7303ZM81.7948 75.4126L80.7324 71.8498C82.9246 72.3963 85.1061 73.0483 87.2219 73.7892L81.7948 75.4126ZM99.0885 79.0317C98.0559 78.4469 97.0084 77.8868 95.9461 77.3516C95.6532 77.2038 95.3594 77.0581 95.0646 76.9147C93.2658 76.0381 91.4394 75.239 89.5856 74.5174L89.5639 74.509L82.0534 76.7555L84.1044 83.6341L99.2276 79.1105L99.0885 79.0317ZM84.1957 83.4648L82.2225 76.847L89.5582 74.6527C91.3459 75.349 93.1131 76.1203 94.86 76.9666C95.1633 77.1135 95.4654 77.2625 95.7665 77.4138C96.8186 77.9413 97.8572 78.494 98.8824 79.0717L84.1957 83.4648Z" fill="white"/>
<path d="M89.1913 74.3445C89.6837 75.9957 87.7954 80.5671 87.7954 80.5671C87.7954 80.5671 83.7135 77.7815 83.2211 76.1303C82.9847 75.3373 83.0724 74.4828 83.465 73.7546C83.8577 73.0264 84.523 72.4843 85.3147 72.2475C86.1064 72.0107 86.9596 72.0986 87.6866 72.4918C88.4136 72.8851 88.9549 73.5515 89.1913 74.3445Z" fill="#24C77A"/>
<path d="M87.532 74.6992C87.6126 74.9695 87.6113 75.2577 87.5284 75.5273C87.4455 75.7969 87.2846 76.0359 87.0661 76.2139C86.8476 76.3919 86.5813 76.5011 86.3008 76.5275C86.0204 76.554 85.7384 76.4965 85.4906 76.3625C85.2427 76.2284 85.0402 76.0237 84.9084 75.7744C84.7767 75.525 84.7218 75.2421 84.7506 74.9614C84.7795 74.6808 84.8907 74.415 85.0703 74.1977C85.25 73.9804 85.4899 73.8213 85.7598 73.7406C85.939 73.6869 86.127 73.6691 86.3131 73.6882C86.4992 73.7073 86.6797 73.763 86.8443 73.852C87.0088 73.9411 87.1543 74.0617 87.2723 74.207C87.3903 74.3524 87.4785 74.5196 87.532 74.6992Z" fill="white"/>
<path d="M88.1982 82.7602C88.662 82.7602 89.038 82.3836 89.038 81.919C89.038 81.4545 88.662 81.0779 88.1982 81.0779C87.7344 81.0779 87.3584 81.4545 87.3584 81.919C87.3584 82.3836 87.7344 82.7602 88.1982 82.7602Z" fill="#24C77A"/>
<path d="M97.3627 70.8597L91.5262 72.6054C91.519 72.6077 91.5115 72.6093 91.5039 72.6102L92.8363 66.9956C92.8443 66.9608 92.8613 66.9286 92.8858 66.9025C92.9102 66.8764 92.9411 66.8573 92.9753 66.847C93.0095 66.8368 93.0458 66.8359 93.0805 66.8443C93.1152 66.8527 93.147 66.8702 93.1728 66.895L95.9836 69.5546L96.1182 69.6818L97.3627 70.8597Z" fill="white"/>
<path opacity="0.2" d="M97.3618 70.8596L95.3691 71.4557L95.9231 69.74L95.9628 69.6164L95.9829 69.5545L96.1174 69.6818L97.3618 70.8596Z" fill="black"/>
<path d="M100.612 69.8876L95.5635 71.3976L96.1173 69.6818L96.1572 69.5583L96.8789 67.3223C96.893 67.2873 96.9143 67.2556 96.9414 67.2293C96.9685 67.203 97.0009 67.1827 97.0363 67.1697C97.0718 67.1568 97.1096 67.1514 97.1472 67.154C97.1849 67.1566 97.2216 67.1672 97.2549 67.1849C97.2636 67.1902 97.2721 67.196 97.2801 67.2023L100.612 69.8876Z" fill="white"/>
</g>
<defs>
<clipPath id="clip0_55987_1608">
<rect width="185" height="128" fill="white"/>
</clipPath>
</defs>
</svg>
