<svg width="92" height="22" viewBox="0 0 92 22" fill="none" xmlns="http://www.w3.org/2000/svg">
<path fill-rule="evenodd" clip-rule="evenodd" d="M92 0H63.2094C63.2064 1.22203 63.2027 2.44405 63.199 3.66608C63.1807 9.7764 63.1623 15.8867 63.2274 21.997H92V0ZM66.3182 19.1496C66.2941 13.7543 66.2941 8.36498 66.3182 2.9696C70.2067 2.97327 74.0974 2.97033 77.9876 2.9674H77.9879H77.9882H77.9885H77.9887H77.989H77.9893H77.9896H77.9898H77.9901H77.9904C80.5842 2.96545 83.1778 2.96349 85.7705 2.96349C83.9965 3.64485 82.1739 4.19313 80.3519 4.74121C78.0237 5.44155 75.6967 6.14157 73.4737 7.11849C73.5278 7.44844 73.6421 8.10224 73.7022 8.4322C76.1944 7.70557 78.6642 6.90628 81.134 6.10693L81.1342 6.10689C82.9012 5.535 84.6684 4.96309 86.4439 4.41774C86.3537 4.05112 86.1673 3.324 86.0711 2.95738L86.0891 2.95748L86.0891 2.95748C87.1414 2.96356 88.1877 2.9696 89.24 2.9696C89.1269 4.02123 89.1918 5.11958 89.2569 6.21943C89.3786 8.2765 89.5005 10.3388 88.4583 12.1106L88.4282 10.2897L87.8931 10.0392C85.0487 10.8222 82.2435 11.7499 79.4393 12.6773C78.1293 13.1106 76.8195 13.5437 75.5061 13.962C75.7527 14.6891 75.9992 15.4224 76.2397 16.1556C80.2937 14.7395 84.3981 13.4926 88.5021 12.2459L88.5022 12.2459L89.6309 11.9028C89.6878 13.2135 88.7575 13.502 87.8574 13.7811C87.616 13.8559 87.3769 13.9301 87.1595 14.0231C83.6118 15.1169 80.064 16.2473 76.5584 17.4693C76.6366 17.6801 76.7539 17.9948 76.8711 18.3095C76.9884 18.6242 77.1056 18.9388 77.1838 19.1496C73.5639 19.1435 69.938 19.1435 66.3182 19.1496ZM85.7041 19.1499H85.704C83.6993 19.163 81.6941 19.1761 79.6912 19.1069C81.8185 18.3298 83.9843 17.6702 86.1495 17.0108L86.1497 17.0107C87.1854 16.6953 88.2209 16.3799 89.252 16.0517C89.252 17.0809 89.2461 18.104 89.2401 19.1331L89.24 19.1435C88.062 19.1345 86.8831 19.1422 85.7041 19.1499ZM87.3094 6.43413C83.0642 7.68691 78.819 8.97635 74.6639 10.5041C74.7241 11.0969 74.8022 11.6836 74.8984 12.2702C77.0217 11.6173 79.1403 10.9516 81.2583 10.2862C83.3028 9.64388 85.3468 9.00172 87.3936 8.37135C87.3756 7.88858 87.3335 6.91691 87.3094 6.43413ZM21.575 6.03088C23.8119 5.35874 26.0548 4.69883 28.3457 4.22834C28.3818 4.49108 28.4374 4.88367 28.4931 5.27626L28.4931 5.27647C28.5487 5.66899 28.6043 6.06148 28.6404 6.32417C26.8966 6.73356 25.1528 7.16739 23.427 7.65621C23.8045 8.26533 24.1555 8.89372 24.5066 9.52244C25.2017 10.7669 25.8976 12.0126 26.8004 13.1127C27.6835 13.3268 28.5934 13.293 29.4976 13.2594L29.4977 13.2594C29.8063 13.2479 30.1142 13.2365 30.4203 13.2349C30.4443 11.854 30.4684 10.4731 30.4864 9.08602C30.7119 9.10129 31.0515 9.12268 31.3912 9.14406L31.3914 9.14407C31.7311 9.16545 32.0708 9.18684 32.2963 9.20212C32.2963 9.86493 32.2948 10.5277 32.2933 11.1898L32.2933 11.1925C32.2918 11.854 32.2903 12.5147 32.2903 13.1738C33.7455 13.2593 35.2067 13.2227 36.6498 13.021C36.5867 12.245 36.5175 11.4674 36.4483 10.6898C36.3792 9.91231 36.3101 9.13484 36.2469 8.3589C36.5415 8.34057 36.9802 8.31156 37.419 8.28255L37.4195 8.28251L37.4198 8.28249C37.8586 8.25348 38.2975 8.22446 38.592 8.20614C38.5489 8.80694 38.5843 9.43107 38.6198 10.0581C38.6933 11.3568 38.7675 12.6678 38.1471 13.8093C36.5055 15.8868 33.4749 15.8318 31.232 14.8969C29.2056 15.6179 27.0289 15.7707 25.0506 14.7991C24.8343 14.8505 24.6118 14.9055 24.3845 14.9617L24.3835 14.9619L24.3835 14.962C22.0126 15.5483 19.1146 16.2649 17.2877 14.2859C16.4939 12.417 16.5424 10.3681 16.5908 8.32679V8.32677V8.32676V8.32674V8.32672V8.32671V8.32669V8.32667V8.32666V8.32664C16.6165 7.24443 16.6421 6.16435 16.5421 5.11433L17.6545 5.04101L18.7669 4.96769L18.7651 5.71515C18.7586 8.21048 18.7521 10.7099 18.8451 13.2044C20.649 13.2899 22.4589 13.2593 24.2629 13.1494C23.3489 11.3957 22.3146 9.70927 21.2683 8.02894C21.3074 7.77842 21.3646 7.40416 21.4217 7.02991L21.4221 7.02739C21.4791 6.65397 21.536 6.28084 21.575 6.03088ZM42.0375 4.95557L39.8548 5.12055C39.9299 7.87504 39.9842 10.6295 40.0385 13.384C40.0493 13.9352 40.0602 14.4864 40.0712 15.0375C40.3326 15.0284 40.7229 15.0162 41.1134 15.004L41.1145 15.0039L41.1156 15.0039C41.5061 14.9917 41.8965 14.9795 42.1578 14.9703C42.1563 14.1788 42.1597 13.387 42.163 12.5949C42.1736 10.0485 42.1843 7.50027 42.0375 4.95557ZM56.3615 4.97426L56.3616 4.97426L56.4748 4.96781V4.9742C56.4748 8.33273 56.4748 11.6913 56.4688 15.0559C56.1375 15.0439 55.8076 15.0333 55.4784 15.0228L55.4781 15.0228L55.4776 15.0228C55.138 15.0119 54.7992 15.0011 54.4604 14.9887C54.438 14.1684 54.414 13.3477 54.3901 12.5268L54.39 12.5263L54.39 12.5258L54.39 12.5252L54.39 12.5247L54.39 12.5241L54.39 12.5236L54.39 12.523C54.3178 10.0494 54.2455 7.57412 54.2139 5.10224C54.9278 5.05581 55.6471 5.0149 56.3615 4.97426ZM6.428 5.95167L1.44917 5.98833C1.45518 6.50778 1.47322 7.55278 1.48525 8.07222C2.03845 8.07222 2.59166 8.07154 3.14486 8.07087C4.25126 8.06951 5.35767 8.06815 6.46408 8.07222C6.46105 7.80449 6.45345 7.40194 6.44588 7.00114L6.44587 7.00101L6.44587 7.00084L6.44587 7.00074L6.44587 7.00051C6.43841 6.60559 6.43098 6.21243 6.428 5.95167ZM33.8176 5.93944C34.4009 5.93944 35.5734 5.93944 36.1627 5.93333L36.1387 7.85222C35.5674 7.85833 34.4189 7.88277 33.8477 7.89499C33.8447 7.65055 33.8387 7.28388 33.8326 6.91722L33.8326 6.91307C33.8266 6.54779 33.8206 6.18296 33.8176 5.93944ZM9.21372 9.29461L8.79713 9.42208C8.97752 10.8763 9.15792 12.3245 9.34432 13.7787C8.81348 13.8371 8.26738 13.9319 7.71489 14.0278C5.83914 14.3533 3.88963 14.6916 2.21281 13.6626C2.03444 12.9466 1.95197 12.2105 1.86975 11.4766L1.86975 11.4766C1.84111 11.2209 1.8125 10.9655 1.77987 10.7114L0 10.7602V13.7543C0.450981 15.3063 1.65961 16.5406 3.32523 16.5406C5.89883 16.6567 8.97151 16.5283 10.8897 14.5792C11.1341 13.1303 11.0889 11.6572 11.0439 10.1911V10.1911V10.1911V10.1911L11.0439 10.191C11.0292 9.70952 11.0144 9.2288 11.0099 8.74995C10.4094 8.92857 9.81279 9.11121 9.21372 9.29461ZM12.9883 9.59318C13.7219 9.3671 14.4555 9.14102 15.1891 8.90883C15.2102 9.48919 15.2657 10.0929 15.3221 10.7059C15.5393 13.0681 15.7692 15.5683 14.0887 17.4021C13.1031 18.6427 11.5073 18.712 10.059 18.7749C9.95216 18.7795 9.84615 18.7841 9.74125 18.7892V18.7888C9.74125 18.0496 9.74125 17.3043 9.74726 16.565C11.2385 16.4306 13.0184 16.2473 13.6558 14.6158C13.6913 13.1809 13.4136 11.7678 13.1381 10.3654C13.0874 10.1077 13.0369 9.85028 12.9883 9.59318ZM45.0079 9.37352L45.0068 9.37368C44.7429 9.4104 44.4789 9.44716 44.214 9.48318C44.278 9.87587 44.3535 10.2695 44.4292 10.6643C44.681 11.977 44.9351 13.3014 44.7733 14.6403C44.4077 16.1314 42.8811 16.3322 41.5799 16.5033L41.5799 16.5033L41.5798 16.5033C41.3828 16.5292 41.1909 16.5544 41.0091 16.5833C41.0151 17.3288 41.0271 18.0742 41.0391 18.8136C43.258 19.058 45.104 17.8665 46.3186 16.064C48.6457 16.4978 51.8146 16.5222 52.9931 13.9865C53.1768 12.7599 53.1156 11.5205 53.0546 10.287C53.0318 9.82438 53.009 9.36263 52.9991 8.9027C52.4219 8.9638 51.2614 9.09212 50.6841 9.15933C50.8585 10.6808 51.069 12.2023 51.2794 13.7237C51.1492 13.7359 51.0189 13.7484 50.8886 13.7609C49.5867 13.8857 48.2804 14.0109 46.974 13.8887C46.7091 12.4585 46.6164 11.0078 46.524 9.5601V9.56002L46.499 9.17155C46.0007 9.23535 45.5048 9.30436 45.0083 9.37347L45.0082 9.37348L45.0079 9.37352ZM26.0607 17.8543C26.9625 17.8512 27.8659 17.8466 28.7692 17.8421C29.6728 17.8375 30.5764 17.8329 31.4785 17.8298C31.499 18.196 31.5181 18.5621 31.5371 18.9276L31.5372 18.9283C31.5572 19.3129 31.5772 19.6966 31.5988 20.0787H26.0547C26.0547 19.709 26.0562 19.3378 26.0577 18.9665C26.0592 18.5953 26.0607 18.224 26.0607 17.8543ZM53.0834 17.836C51.2794 17.8421 49.4755 17.8421 47.6716 17.8421L47.6536 20.091C49.4875 20.0849 51.3275 20.0788 53.1615 20.0788C53.1315 19.3332 53.1074 18.5876 53.0834 17.836Z" fill="#C4C4C4"/>
</svg>
