<svg width="136" height="108" viewBox="0 0 136 108" fill="none" xmlns="http://www.w3.org/2000/svg">
<path fill-rule="evenodd" clip-rule="evenodd" d="M110.198 32.1596C110.198 25.4144 104.73 19.9463 97.9845 19.9463H13.369C6.62383 19.9463 1.15576 25.4144 1.15576 32.1596V68.6388C1.15576 73.429 5.03902 77.3123 9.82927 77.3123C14.6195 77.3123 18.5028 81.1955 18.5028 85.9858V87.9128C18.5028 93.7673 23.2488 98.5133 29.1033 98.5133H115.331C122.077 98.5133 127.545 93.0452 127.545 86.3V59.7975C127.545 55.0072 123.661 51.124 118.871 51.124C114.081 51.124 110.198 47.2407 110.198 42.4505V32.1596Z" fill="white"/>
<path d="M2.31055 32.1596C2.31055 25.4144 7.77862 19.9463 14.5238 19.9463H57.8512C70.8755 19.9463 74.854 37.6093 63.0875 43.1934L43.9045 52.2972L20.4551 65.3246C12.3146 69.8471 2.31055 63.9607 2.31055 54.6483V32.1596Z" fill="#EBEEFF"/>
<path d="M75.2158 81.1862H102.945C103.292 81.1862 103.638 81.1862 103.985 81.1862C105.371 81.1862 106.758 81.1862 108.029 80.8396C110.686 80.0308 112.881 77.8356 113.69 75.1782C114.037 73.9073 114.037 72.6363 114.037 71.2499C114.037 70.9033 114.037 70.6722 114.037 70.3256V58.5406C114.037 49.0664 114.037 39.5922 114.037 30.1181C114.037 28.385 114.037 26.6519 113.344 25.1499C112.188 22.0303 108.953 19.8351 105.718 19.9506C87.925 19.9506 70.2476 19.9506 52.4546 19.9506C38.3589 19.9506 24.3787 19.9506 10.283 19.9506C8.54987 19.9506 6.81679 19.9506 5.43032 20.5283C2.31078 21.6837 0.115539 24.8033 0 28.1539V73.5606C0.231078 75.5248 1.03985 77.3734 2.31078 78.6444C3.92832 80.3774 6.2391 81.4173 8.66541 81.3017H51.8769C52.5702 81.3017 53.1478 81.1862 53.4945 80.7241C53.9566 80.2619 53.9566 79.4531 53.9566 78.7599V78.2977C53.9566 77.6045 53.9566 76.9113 53.9566 76.3336C53.9566 75.5248 53.9566 74.716 53.9566 73.7917C53.9566 72.983 53.2634 72.1742 52.4546 72.1742C51.6458 72.0586 50.7215 72.7519 50.7215 73.5606C50.606 74.3694 50.606 75.1782 50.7215 75.987C50.7215 76.4491 50.7215 76.9113 50.7215 77.3734V77.9511H38.0123C28.1915 77.9511 18.4862 77.9511 8.66541 77.9511C7.39448 77.9511 6.00802 77.489 5.08371 76.4491C4.04386 75.4093 3.5817 74.1383 3.5817 72.8674C3.5817 58.0784 3.5817 43.405 3.5817 28.6161C3.5817 26.6519 4.62155 24.8033 6.35463 23.9945C7.39448 23.4168 8.66541 23.4168 9.8208 23.4168C10.0519 23.4168 10.283 23.4168 10.514 23.4168C18.1396 23.4168 25.7652 23.4168 33.3907 23.4168H50.8371V23.9945C50.8371 24.4567 50.8371 24.9188 50.8371 25.2654C50.8371 25.9587 50.8371 26.7674 50.8371 27.4607C50.8371 28.2694 51.6458 28.9627 52.4546 28.9627C53.2634 29.0782 54.0722 28.385 54.1877 27.5762C54.3032 26.7674 54.3032 26.0742 54.1877 25.2654C54.1877 24.8033 54.1877 24.3411 54.1877 23.879V23.3013H105.602C107.451 23.1857 109.3 24.3411 110.224 26.0742C110.802 27.2296 110.802 28.385 110.802 29.5404C110.802 29.7714 110.802 30.1181 110.802 30.3491C110.802 43.8672 110.802 57.3852 110.802 70.7877C110.802 71.0188 110.802 71.2499 110.802 71.4809C110.802 72.6363 110.802 73.9073 110.224 75.0627C109.3 76.7957 107.451 77.9511 105.371 77.8356H93.2398C86.7696 77.8356 80.1839 77.8356 73.7138 77.8356H73.5982C73.1361 77.8356 72.6739 78.0667 72.4428 78.2977C72.0962 78.6444 71.9807 79.1065 71.9807 79.4531C71.9807 82.1105 71.9807 84.7679 71.9807 87.4253V88.5807C71.8651 89.505 72.5584 90.3138 73.3671 90.4293C73.8293 90.5449 74.2914 90.4293 74.7536 90.0827C75.1002 89.7361 75.3313 89.3895 75.3313 88.9273C75.3313 87.5408 75.3313 86.1544 75.3313 84.7679C75.3313 83.7281 75.3313 82.8038 75.3313 81.7639L75.2158 81.1862Z" fill="#353C57"/>
<path d="M52.5702 47.5644C53.3789 47.4489 53.9566 46.6401 53.9566 45.8313C53.9566 44.7915 53.9566 43.6361 53.9566 42.5962C53.9566 40.5165 53.9566 38.4369 53.9566 36.4727C53.9566 36.0105 53.61 35.5484 53.1478 35.2018C52.8012 34.9707 52.5702 34.9707 52.2235 34.9707C51.9925 34.9707 51.8769 34.9707 51.6458 35.0862C50.9526 35.3173 50.4905 36.0105 50.606 36.7038V38.7835C50.606 41.2098 50.606 43.6361 50.606 46.0624C50.606 46.5246 50.8371 46.9867 51.1837 47.3333C51.6458 47.5644 52.108 47.68 52.5702 47.5644Z" fill="#353C57"/>
<path d="M91.0446 41.4409C87.925 41.4409 84.8055 41.4409 81.8015 41.4409C78.2198 41.4409 74.6381 41.4409 71.0564 41.4409H70.8253C70.4787 41.4409 70.0165 41.4409 69.7854 41.5564C69.0922 41.903 68.63 42.7118 68.8611 43.405C68.9767 44.2138 69.7854 44.7915 70.5942 44.7915C77.5265 44.7915 84.3433 44.7915 91.1601 44.7915C91.6223 44.7915 92.0844 44.6759 92.431 44.3293C92.7777 43.9827 93.0087 43.5206 92.8932 43.0584C92.8932 42.5962 92.6621 42.1341 92.3155 41.903C91.9689 41.6719 91.5067 41.4409 91.0446 41.4409Z" fill="#24C879"/>
<path d="M126.399 107.298C129.172 107.414 131.714 106.027 133.332 103.947C134.256 102.676 134.949 101.174 135.065 99.3258V53.688C134.718 50.1063 131.83 46.7556 128.133 46.0624C127.208 45.9469 126.053 45.8313 125.244 46.5246C124.897 46.8712 124.782 47.4489 124.897 47.911C125.013 48.4887 125.36 48.9509 125.822 49.182C126.168 49.2975 126.515 49.2975 126.977 49.413C127.555 49.5286 128.133 49.5286 128.71 49.7597C130.674 50.5684 131.83 52.6481 131.714 54.7278C131.714 61.0825 131.714 67.4371 131.714 73.7917C131.714 82.1105 131.714 90.4293 131.714 98.6326C131.714 99.9035 131.252 101.29 130.212 102.214C129.172 103.254 127.901 103.716 126.631 103.716C115.192 103.716 103.754 103.716 92.3155 103.716H75.2158V103.139C75.2158 102.676 75.2158 102.099 75.2158 101.521C75.2158 100.597 75.3313 99.6724 74.9847 98.8636C74.7536 98.286 74.0604 98.0549 73.4827 98.0549C72.905 98.0549 72.3273 98.2859 71.9807 98.9792C71.7496 99.788 71.7496 100.712 71.7496 101.637C71.7496 102.214 71.7496 102.676 71.7496 103.254V103.832H57.6539C48.2952 103.832 38.821 103.832 29.4624 103.832C26.9205 103.947 24.6098 101.752 24.3787 99.2103C24.2631 98.1704 24.2631 97.1306 24.3787 96.0907C24.3787 95.1664 24.3787 94.2421 24.3787 93.3178C24.3787 92.509 23.6855 91.8158 22.8767 91.8158C22.0679 91.7002 21.2591 92.3935 21.1436 93.2022C21.0281 93.8955 21.0281 94.5887 21.0281 95.282C21.0281 95.6286 21.0281 95.9752 21.0281 96.3218V97.1306C21.0281 98.7481 21.0281 100.366 21.6058 101.868C22.7611 104.987 26.1118 107.298 29.4624 107.298C29.4624 107.298 29.4624 107.298 29.5779 107.298C48.9885 107.298 68.399 107.298 87.8095 107.298H126.399Z" fill="#353C57"/>
<path d="M52.5702 66.2817C53.3789 66.1662 53.9566 65.3574 53.9566 64.5486C53.9566 63.5088 53.9566 62.4689 53.9566 61.5446C53.9566 59.4649 53.9566 57.2697 53.9566 55.19C53.9566 54.7278 53.61 54.2657 53.1478 53.9191C52.8012 53.688 52.5702 53.688 52.2235 53.688C51.9925 53.688 51.8769 53.688 51.6458 53.8035C50.9526 54.0346 50.4905 54.7278 50.606 55.4211V57.8474C50.606 60.1581 50.606 62.4689 50.606 64.7797C50.606 65.2419 50.8371 65.704 51.1837 66.0506C51.6458 66.2817 52.108 66.3972 52.5702 66.2817Z" fill="#353C57"/>
<path d="M80.8772 56.2298C79.4907 56.2298 78.1042 56.2298 76.6022 56.2298C74.407 56.2298 72.0962 56.2298 69.901 56.3454C69.0922 56.5764 68.63 57.3852 68.7456 58.194C68.8611 59.0028 69.6699 59.696 70.4787 59.5805C72.5584 59.5805 74.5225 59.5805 76.6022 59.5805C77.411 59.5805 78.1042 59.5805 78.913 59.5805C79.9529 59.5805 80.9927 59.5805 82.0325 59.5805C82.7258 59.5805 83.419 59.5805 83.7656 59.1183C84.1123 58.7717 84.3433 58.3095 84.3433 57.8474C84.3433 57.3852 84.1123 56.8075 83.7656 56.5764C83.1879 56.1143 82.4947 56.1143 81.6859 56.2298C81.4548 56.2298 81.1082 56.2298 80.8772 56.2298Z" fill="#24C879"/>
<path d="M26.2622 36.9988C27.2669 36.9146 28.2768 36.9452 29.2828 36.979C30.2489 37.0696 31.2253 37.0326 32.185 37.1875C33.3617 37.2959 34.5319 37.4814 35.6816 37.7543C38.86 38.5673 41.3023 41.592 41.3866 44.8431C41.3976 46.6296 41.3866 48.4168 41.3918 50.2033C41.8626 50.2103 42.3341 50.1918 42.8049 50.2116C43.4071 50.2543 43.9081 50.7701 43.968 51.3586V51.562C43.9313 52.162 43.4244 52.6969 42.8152 52.7448C42.3411 52.7677 41.8665 52.7473 41.3918 52.7543C41.3899 54.4956 41.3918 56.2368 41.3911 57.9781C41.3886 58.4149 41.4066 58.8535 41.3467 59.2871C41.1973 60.4188 40.6473 61.4931 39.8171 62.285C39.1376 62.9398 38.272 63.3976 37.3477 63.6042C37.0708 64.4401 36.5214 65.1944 35.7621 65.6611C34.8147 66.2566 33.6058 66.4115 32.5315 66.0972C31.3638 65.7758 30.4119 64.8533 30.0151 63.7254C28.3219 63.7254 26.6287 63.7234 24.9354 63.726C24.6334 64.5568 24.0511 65.2951 23.2718 65.7357C22.2735 66.314 21.0157 66.4128 19.9317 66.0213C18.8246 65.6394 17.9532 64.7079 17.6054 63.6048C16.6676 63.3938 15.7891 62.9271 15.1058 62.257C14.1429 61.3267 13.5691 60.0114 13.562 58.6782C13.5594 56.7036 13.5613 54.7289 13.5607 52.7549C13.0512 52.7396 12.5379 52.7849 12.0311 52.7269C11.4797 52.6466 11.0534 52.1677 10.9922 51.6271V51.3701C11.0295 50.8033 11.483 50.2977 12.0575 50.2256C12.556 50.1772 13.0596 50.2167 13.5601 50.2033C13.5633 48.4378 13.5568 46.673 13.5633 44.9075C13.6251 41.921 15.6687 39.1086 18.4717 38.0323C19.0867 37.783 19.7437 37.667 20.3922 37.5369C22.3276 37.1862 24.2933 36.9835 26.2622 36.9988ZM26.5952 39.5064C24.4305 39.5594 22.2568 39.7213 20.1404 40.1931C18.9798 40.4545 17.9133 41.1202 17.1932 42.0613C16.4937 42.9584 16.1273 44.0939 16.1382 45.225C16.1389 49.7085 16.135 54.1921 16.1402 58.6763C16.1447 59.7723 16.9542 60.795 18.0215 61.0768C18.4317 61.219 18.8935 61.101 19.2851 61.3051C19.7417 61.5199 20.0219 62.0147 20.0071 62.5101C20.02 63.1228 20.5475 63.6667 21.1619 63.7164C21.719 63.7821 22.2871 63.4365 22.4874 62.9201C22.6207 62.6287 22.5389 62.294 22.6619 62.0007C22.8397 61.5135 23.3427 61.1648 23.8669 61.175C26.2751 61.1743 28.6832 61.1743 31.0914 61.175C31.7747 61.159 32.3833 61.7654 32.3717 62.44C32.3576 63.0559 32.8522 63.6284 33.4686 63.7088C34.0585 63.8082 34.6801 63.4378 34.872 62.878C34.9853 62.5987 34.9119 62.2831 35.0298 62.0051C35.205 61.5148 35.7093 61.168 36.2348 61.1731C36.96 61.1737 37.6769 60.8581 38.1567 60.3193C38.5934 59.8405 38.8278 59.1946 38.8143 58.5513C38.8143 54.0882 38.8143 49.625 38.8143 45.1619C38.8149 44.0684 38.4639 42.9737 37.7999 42.0976C37.0515 41.0902 35.9108 40.3863 34.6743 40.1421C32.0233 39.5817 29.2976 39.4701 26.5952 39.5064Z" fill="#353C57"/>
<path d="M22.3418 41.9286C25.7077 41.8974 29.0761 41.9235 32.4426 41.9153C33.1781 41.8936 33.8151 42.5994 33.7172 43.3199C33.6727 43.7936 33.334 44.224 32.8812 44.384C32.6384 44.479 32.3724 44.465 32.1167 44.4656C28.9402 44.4643 25.7643 44.4663 22.5885 44.465C22.2136 44.4682 21.8253 44.3413 21.5689 44.0614C21.1477 43.6132 21.1239 42.8627 21.5084 42.3852C21.7081 42.1282 22.0198 41.9707 22.3418 41.9286Z" fill="#353C57"/>
<path d="M19.649 55.721C20.2132 55.582 20.8437 55.8785 21.0923 56.3975C21.4041 56.9924 21.1451 57.8219 20.5191 58.1018C20.0786 58.3116 19.5163 58.2644 19.1305 57.9615C18.6745 57.6128 18.5238 56.9382 18.7705 56.4268C18.9328 56.0743 19.2671 55.8052 19.649 55.721Z" fill="#353C57"/>
<path d="M34.6582 55.721C35.0092 55.6401 35.3937 55.7121 35.688 55.9193C36.0622 56.1744 36.2818 56.6385 36.2271 57.0867C36.1923 57.4208 36.0339 57.7486 35.764 57.9577C35.3157 58.3103 34.6311 58.3218 34.1706 57.9845C33.7062 57.6523 33.5368 56.9879 33.761 56.4708C33.9156 56.0978 34.2601 55.8097 34.6582 55.721Z" fill="#353C57"/>
<path d="M26.2622 36.9988C27.2669 36.9146 28.2768 36.9452 29.2828 36.979C30.2489 37.0696 31.2253 37.0326 32.185 37.1875C33.3617 37.2959 34.5319 37.4814 35.6816 37.7543C38.86 38.5673 41.3023 41.592 41.3866 44.8431C41.3976 46.6296 41.3866 48.4168 41.3918 50.2033C41.8626 50.2103 42.3341 50.1918 42.8049 50.2116C43.4071 50.2543 43.9081 50.7701 43.968 51.3586V51.562C43.9313 52.162 43.4244 52.6969 42.8152 52.7448C42.3411 52.7677 41.8665 52.7473 41.3918 52.7543C41.3899 54.4956 41.3918 56.2368 41.3911 57.9781C41.3886 58.4149 41.4066 58.8535 41.3467 59.2871C41.1973 60.4188 40.6473 61.4931 39.8171 62.285C39.1376 62.9398 38.272 63.3976 37.3477 63.6042C37.0708 64.4401 36.5214 65.1944 35.7621 65.6611C34.8147 66.2566 33.6058 66.4115 32.5315 66.0972C31.3638 65.7758 30.4119 64.8533 30.0151 63.7254C28.3219 63.7254 26.6287 63.7234 24.9354 63.726C24.6334 64.5568 24.0511 65.2951 23.2718 65.7357C22.2735 66.314 21.0157 66.4128 19.9317 66.0213C18.8246 65.6394 17.9532 64.7079 17.6054 63.6048C16.6676 63.3938 15.7891 62.9271 15.1058 62.257C14.1429 61.3267 13.5691 60.0114 13.562 58.6782C13.5594 56.7036 13.5613 54.7289 13.5607 52.7549C13.0512 52.7396 12.5379 52.7849 12.0311 52.7269C11.4797 52.6466 11.0534 52.1677 10.9922 51.6271V51.3701C11.0295 50.8033 11.483 50.2977 12.0575 50.2256C12.556 50.1772 13.0596 50.2167 13.5601 50.2033C13.5633 48.4378 13.5568 46.673 13.5633 44.9075C13.6251 41.921 15.6687 39.1086 18.4717 38.0323C19.0867 37.783 19.7437 37.667 20.3922 37.5369C22.3276 37.1862 24.2933 36.9835 26.2622 36.9988ZM26.5952 39.5064C24.4305 39.5594 22.2568 39.7213 20.1404 40.1931C18.9798 40.4545 17.9133 41.1202 17.1932 42.0613C16.4937 42.9584 16.1273 44.0939 16.1382 45.225C16.1389 49.7085 16.135 54.1921 16.1402 58.6763C16.1447 59.7723 16.9542 60.795 18.0215 61.0768C18.4317 61.219 18.8935 61.101 19.2851 61.3051C19.7417 61.5199 20.0219 62.0147 20.0071 62.5101C20.02 63.1228 20.5475 63.6667 21.1619 63.7164C21.719 63.7821 22.2871 63.4365 22.4874 62.9201C22.6207 62.6287 22.5389 62.294 22.6619 62.0007C22.8397 61.5135 23.3427 61.1648 23.8669 61.175C26.2751 61.1743 28.6832 61.1743 31.0914 61.175C31.7747 61.159 32.3833 61.7654 32.3717 62.44C32.3576 63.0559 32.8522 63.6284 33.4686 63.7088C34.0585 63.8082 34.6801 63.4378 34.872 62.878C34.9853 62.5987 34.9119 62.2831 35.0298 62.0051C35.205 61.5148 35.7093 61.168 36.2348 61.1731C36.96 61.1737 37.6769 60.8581 38.1567 60.3193C38.5934 59.8405 38.8278 59.1946 38.8143 58.5513C38.8143 54.0882 38.8143 49.625 38.8143 45.1619C38.8149 44.0684 38.4639 42.9737 37.7999 42.0976C37.0515 41.0902 35.9108 40.3863 34.6743 40.1421C32.0233 39.5817 29.2976 39.4701 26.5952 39.5064Z" stroke="#353C57" stroke-width="0.610664"/>
<path d="M22.3418 41.9286C25.7077 41.8974 29.0761 41.9235 32.4426 41.9153C33.1781 41.8936 33.8151 42.5994 33.7172 43.3199C33.6727 43.7936 33.334 44.224 32.8812 44.384C32.6384 44.479 32.3724 44.465 32.1167 44.4656C28.9402 44.4643 25.7643 44.4663 22.5885 44.465C22.2136 44.4682 21.8253 44.3413 21.5689 44.0614C21.1477 43.6132 21.1239 42.8627 21.5084 42.3852C21.7081 42.1282 22.0198 41.9707 22.3418 41.9286Z" stroke="#353C57" stroke-width="0.610664"/>
<path d="M19.649 55.721C20.2132 55.582 20.8437 55.8785 21.0923 56.3975C21.4041 56.9924 21.1451 57.8219 20.5191 58.1018C20.0786 58.3116 19.5163 58.2644 19.1305 57.9615C18.6745 57.6128 18.5238 56.9382 18.7705 56.4268C18.9328 56.0743 19.2671 55.8052 19.649 55.721Z" stroke="#353C57" stroke-width="0.610664"/>
<path d="M34.6582 55.721C35.0092 55.6401 35.3937 55.7121 35.688 55.9193C36.0622 56.1744 36.2818 56.6385 36.2271 57.0867C36.1923 57.4208 36.0339 57.7486 35.764 57.9577C35.3157 58.3103 34.6311 58.3218 34.1706 57.9845C33.7062 57.6523 33.5368 56.9879 33.761 56.4708C33.9156 56.0978 34.2601 55.8097 34.6582 55.721Z" stroke="#353C57" stroke-width="0.610664"/>
<ellipse cx="110.917" cy="20.524" rx="18.4862" ry="17.9085" fill="#9DF9CC"/>
<path d="M117.442 14.5257C118.279 13.8084 119.858 14.2405 120.101 15.2313C120.318 15.8586 119.904 16.4658 119.374 16.8628C116.578 19.2782 113.8 21.7087 111.006 24.1258C110.386 24.7197 109.209 24.7164 108.602 24.1092C107.223 22.8597 105.849 21.6053 104.478 20.3508C103.856 19.8421 103.813 18.9179 104.403 18.3791C104.99 17.7786 106.156 17.7536 106.774 18.3324C107.809 19.2465 108.811 20.189 109.837 21.1115C112.383 18.9263 114.888 16.7043 117.442 14.5257Z" fill="#353C57"/>
<path d="M105.742 1.01563C110.837 -0.437121 116.504 0.370768 121.022 3.12593C124.056 4.95546 126.592 7.60737 128.259 10.7339C129.711 13.4311 130.478 16.4724 130.559 19.5301V20.9611C130.336 24.0713 129.472 27.1507 127.871 29.8407C126.084 32.8965 123.456 35.4542 120.352 37.157C117.533 38.722 114.322 39.5263 111.105 39.5879H110.69C107.52 39.5209 104.359 38.7329 101.575 37.2041C98.4545 35.5176 95.8103 32.9672 94.0051 29.9149C91.8267 26.2649 90.9078 21.8904 91.4098 17.6716C91.9481 12.9438 94.2843 8.44786 97.8492 5.29419C98.2081 4.9627 98.7028 4.77432 99.194 4.87032C100.002 4.98806 100.609 5.83037 100.457 6.63645C100.383 7.22697 99.8863 7.60918 99.4894 7.99682C96.0821 11.1994 94.1809 15.9145 94.3821 20.5825C94.5036 24.0876 95.7976 27.5347 97.9978 30.2663C100.223 33.0487 103.364 35.0974 106.826 35.9651C110.184 36.8327 113.82 36.6045 117.041 35.3075C120.323 34.0033 123.159 31.614 125.006 28.6035C128.373 23.2815 128.257 16.025 124.711 10.819C122.704 7.79575 119.681 5.46084 116.247 4.28523C113.385 3.29801 110.246 3.1205 107.295 3.81246C106.9 3.89759 106.507 4.01715 106.097 4.01715C105.363 3.99903 104.72 3.37047 104.655 2.64409C104.564 1.93402 105.043 1.19677 105.742 1.01563Z" fill="#353C57"/>
</svg>
