<svg width="135" height="107" viewBox="0 0 135 107" fill="none" xmlns="http://www.w3.org/2000/svg">
<path fill-rule="evenodd" clip-rule="evenodd" d="M110.149 31.3604C110.149 24.8883 104.902 19.6416 98.43 19.6416H12.8779C6.40584 19.6416 1.15918 24.8883 1.15918 31.3604V68.3377C1.15918 73.126 5.04084 77.0076 9.8291 77.0076C14.6174 77.0076 18.499 80.8893 18.499 85.6775V87.608C18.499 93.4624 23.245 98.2084 29.0994 98.2084H115.77C122.242 98.2084 127.489 92.9617 127.489 86.4896V59.489C127.489 54.7008 123.607 50.8191 118.819 50.8191C114.03 50.8191 110.149 46.9374 110.149 42.1492V31.3604Z" fill="white"/>
<path d="M2.31152 31.3603C2.31152 24.8882 7.55819 19.6416 14.0303 19.6416H60.0174C72.5131 19.6416 76.3317 36.5868 65.0437 41.9464L43.8855 51.9924L19.7235 65.4222C11.9125 69.7637 2.31152 64.1158 2.31152 55.1794V31.3603Z" fill="#EBEEFF"/>
<path d="M75.1796 80.8815H102.896C103.242 80.8815 103.589 80.8815 103.935 80.8815C105.321 80.8815 106.707 80.8815 107.977 80.5349C110.633 79.7261 112.827 77.5309 113.636 74.8735C113.982 73.6026 113.982 72.3317 113.982 70.9452C113.982 70.5986 113.982 70.3675 113.982 70.0209V58.2359C113.982 48.7617 113.982 39.2876 113.982 29.8134C113.982 28.0803 113.982 26.3472 113.289 24.8452C112.134 21.7257 108.901 19.5304 105.667 19.646C87.8828 19.646 70.2139 19.646 52.4294 19.646C38.3405 19.646 24.367 19.646 10.278 19.646C8.54576 19.646 6.81352 19.646 5.42772 20.2237C2.30967 21.3791 0.115483 24.4986 0 27.8492V73.256C0.230967 75.2201 1.03935 77.0687 2.30967 78.3397C3.92643 80.0728 6.2361 81.1126 8.66125 80.9971H51.852C52.5449 80.9971 53.1223 80.8815 53.4688 80.4194C53.9307 79.9572 53.9307 79.1484 53.9307 78.4552V77.9931C53.9307 77.2998 53.9307 76.6066 53.9307 76.0289C53.9307 75.2201 53.9307 74.4114 53.9307 73.487C53.9307 72.6783 53.2378 71.8695 52.4294 71.8695C51.621 71.754 50.6972 72.4472 50.6972 73.256C50.5817 74.0647 50.5817 74.8735 50.6972 75.6823C50.6972 76.1444 50.6972 76.6066 50.6972 77.0687V77.6464H37.994C28.1779 77.6464 18.4773 77.6464 8.66125 77.6464C7.39093 77.6464 6.00513 77.1843 5.08127 76.1444C4.04192 75.1046 3.57998 73.8337 3.57998 72.5627C3.57998 57.7738 3.57998 43.1003 3.57998 28.3114C3.57998 26.3472 4.61933 24.4986 6.35158 23.6898C7.39093 23.1121 8.66125 23.1121 9.81608 23.1121C10.047 23.1121 10.278 23.1121 10.509 23.1121C18.1309 23.1121 25.7528 23.1121 33.3747 23.1121H50.8127V23.6898C50.8127 24.152 50.8127 24.6141 50.8127 24.9608C50.8127 25.654 50.8127 26.4628 50.8127 27.156C50.8127 27.9648 51.621 28.658 52.4294 28.658C53.2378 28.7735 54.0462 28.0803 54.1617 27.2715C54.2772 26.4628 54.2772 25.7695 54.1617 24.9608C54.1617 24.4986 54.1617 24.0364 54.1617 23.5743V22.9966H105.552C107.399 22.8811 109.247 24.0364 110.171 25.7695C110.749 26.9249 110.749 28.0803 110.749 29.2357C110.749 29.4668 110.749 29.8134 110.749 30.0445C110.749 43.5625 110.749 57.0805 110.749 70.483C110.749 70.7141 110.749 70.9452 110.749 71.1763C110.749 72.3317 110.749 73.6026 110.171 74.758C109.247 76.4911 107.399 77.6464 105.321 77.5309H93.195C86.728 77.5309 80.1454 77.5309 73.6784 77.5309H73.5629C73.1009 77.5309 72.639 77.762 72.408 77.9931C72.0616 78.3397 71.9461 78.8018 71.9461 79.1484C71.9461 81.8058 71.9461 84.4632 71.9461 87.1206V88.276C71.8306 89.2003 72.5235 90.0091 73.3319 90.1246C73.7938 90.2402 74.2558 90.1246 74.7177 89.778C75.0642 89.4314 75.2951 89.0848 75.2951 88.6226C75.2951 87.2362 75.2951 85.8497 75.2951 84.4632C75.2951 83.4234 75.2951 82.4991 75.2951 81.4592L75.1796 80.8815Z" fill="#353C57"/>
<path d="M52.5449 47.2597C53.3533 47.1442 53.9307 46.3354 53.9307 45.5267C53.9307 44.4868 53.9307 43.3314 53.9307 42.2916C53.9307 40.2119 53.9307 38.1322 53.9307 36.168C53.9307 35.7059 53.5843 35.2437 53.1223 34.8971C52.7759 34.666 52.5449 34.666 52.1985 34.666C51.9675 34.666 51.852 34.666 51.621 34.7816C50.9281 35.0126 50.4662 35.7059 50.5817 36.3991V38.4788C50.5817 40.9051 50.5817 43.3314 50.5817 45.7577C50.5817 46.2199 50.8127 46.682 51.1591 47.0287C51.621 47.2597 52.083 47.3753 52.5449 47.2597Z" fill="#353C57"/>
<path d="M91.0009 41.1362C87.8828 41.1362 84.7648 41.1362 81.7622 41.1362C78.1822 41.1362 74.6022 41.1362 71.0222 41.1362H70.7913C70.4448 41.1362 69.9829 41.1362 69.7519 41.2517C69.059 41.5983 68.5971 42.4071 68.8281 43.1003C68.9435 43.9091 69.7519 44.4868 70.5603 44.4868C77.4893 44.4868 84.3028 44.4868 91.1163 44.4868C91.5783 44.4868 92.0402 44.3713 92.3867 44.0247C92.7331 43.678 92.9641 43.2159 92.8486 42.7537C92.8486 42.2916 92.6176 41.8294 92.2712 41.5983C91.9247 41.3673 91.4628 41.1362 91.0009 41.1362Z" fill="#24C879"/>
<path d="M126.339 106.993C129.11 107.109 131.651 105.722 133.268 103.643C134.192 102.372 134.885 100.87 135 99.0211V53.3833C134.654 49.8016 131.766 46.451 128.071 45.7577C127.147 45.6422 125.992 45.5267 125.184 46.2199C124.837 46.5665 124.722 47.1442 124.837 47.6064C124.953 48.1841 125.299 48.6462 125.761 48.8773C126.108 48.9928 126.454 48.9928 126.916 49.1084C127.494 49.2239 128.071 49.2239 128.648 49.455C130.612 50.2638 131.766 52.3434 131.651 54.4231C131.651 60.7778 131.651 67.1324 131.651 73.487C131.651 81.8058 131.651 90.1246 131.651 98.3279C131.651 99.5988 131.189 100.985 130.15 101.91C129.11 102.949 127.84 103.412 126.57 103.412C115.137 103.412 103.704 103.412 92.2712 103.412H75.1796V102.834C75.1796 102.372 75.1796 101.794 75.1796 101.216C75.1796 100.292 75.2951 99.3677 74.9487 98.559C74.7177 97.9813 74.0248 97.7502 73.4474 97.7502C72.87 97.7502 72.2926 97.9813 71.9461 98.6745C71.7151 99.4833 71.7151 100.408 71.7151 101.332C71.7151 101.91 71.7151 102.372 71.7151 102.949V103.527H57.6262C48.272 103.527 38.8024 103.527 29.4482 103.527C26.9076 103.643 24.5979 101.447 24.367 98.9056C24.2515 97.8657 24.2515 96.8259 24.367 95.786C24.367 94.8617 24.367 93.9374 24.367 93.0131C24.367 92.2043 23.6741 91.5111 22.8657 91.5111C22.0573 91.3956 21.2489 92.0888 21.1334 92.8976C21.018 93.5908 21.018 94.284 21.018 94.9773C21.018 95.3239 21.018 95.6705 21.018 96.0171V96.8259C21.018 98.4434 21.018 100.061 21.5954 101.563C22.7502 104.683 26.0992 106.993 29.4482 106.993C29.4482 106.993 29.4482 106.993 29.5637 106.993C48.9649 106.993 68.3661 106.993 87.7673 106.993H126.339Z" fill="#353C57"/>
<path d="M52.5449 65.977C53.3533 65.8615 53.9307 65.0527 53.9307 64.2439C53.9307 63.2041 53.9307 62.1642 53.9307 61.2399C53.9307 59.1602 53.9307 56.965 53.9307 54.8853C53.9307 54.4231 53.5843 53.961 53.1223 53.6144C52.7759 53.3833 52.5449 53.3833 52.1985 53.3833C51.9675 53.3833 51.852 53.3833 51.621 53.4988C50.9281 53.7299 50.4662 54.4231 50.5817 55.1164V57.5427C50.5817 59.8535 50.5817 62.1642 50.5817 64.475C50.5817 64.9372 50.8127 65.3993 51.1591 65.7459C51.621 65.977 52.083 66.0926 52.5449 65.977Z" fill="#353C57"/>
<path d="M80.8383 55.9252C79.4525 55.9252 78.0667 55.9252 76.5654 55.9252C74.3713 55.9252 72.0616 55.9252 69.8674 56.0407C69.059 56.2718 68.5971 57.0805 68.7126 57.8893C68.8281 58.6981 69.6364 59.3913 70.4448 59.2758C72.5235 59.2758 74.4867 59.2758 76.5654 59.2758C77.3738 59.2758 78.0667 59.2758 78.8751 59.2758C79.9145 59.2758 80.9538 59.2758 81.9932 59.2758C82.6861 59.2758 83.379 59.2758 83.7254 58.8136C84.0719 58.467 84.3028 58.0049 84.3028 57.5427C84.3028 57.0805 84.0719 56.5028 83.7254 56.2718C83.148 55.8096 82.4551 55.8096 81.6467 55.9252C81.4157 55.9252 81.0693 55.9252 80.8383 55.9252Z" fill="#24C879"/>
<path d="M13.5115 53.2678C13.1651 52.3434 12.7032 51.3036 12.0103 50.6104C11.5483 50.4948 11.0864 50.6104 10.7399 50.8414C10.3935 51.0725 10.1625 51.5347 10.047 51.9968C10.8554 54.7698 12.0103 58.0048 14.7819 59.3913C17.0915 60.6622 19.6322 59.7379 20.9025 59.0447C25.1754 56.965 29.5637 54.8853 33.8366 52.9211L39.9572 50.0327C40.5346 49.8016 42.3824 48.8773 42.3824 47.0287C42.4979 45.8733 42.2669 45.0645 41.805 44.2557C41.343 43.5625 40.6501 43.1003 39.7263 42.7537C38.5714 42.4071 37.3011 42.5227 35.4534 43.2159C34.7605 43.447 34.0676 43.7936 33.4902 44.1402L33.2592 44.2557C32.6818 44.6023 31.9889 44.8334 31.4115 45.0645L31.065 45.18L30.834 44.949C29.7947 44.1402 28.8708 43.2159 28.0624 42.2916C27.716 41.945 27.2541 41.4828 26.9076 41.1362C25.6373 39.8653 24.2515 38.7099 22.5192 38.2477C21.3644 37.9011 20.2096 38.5943 19.5167 39.2876C18.8238 39.9808 18.2464 41.2517 18.7083 42.5226C19.6322 44.6023 20.9025 46.451 22.2883 48.4151L22.6347 48.8773L22.1728 49.2239C21.2489 49.9171 19.9786 50.4948 18.8238 51.0725L18.5928 51.1881C18.0154 51.4191 17.5535 51.6502 17.0915 51.8813C16.6296 52.1124 16.2831 52.3434 15.9367 52.5745C15.8212 53.0367 15.9367 53.6144 16.1677 53.961C16.2831 54.1921 16.3986 54.3076 16.6296 54.4231C16.8606 54.5387 17.0915 54.5387 17.3225 54.4231C19.1702 53.961 20.6715 53.1522 22.2883 52.2279L22.9812 51.8813C23.7896 51.5347 24.4825 50.8414 24.8289 50.1482C25.1754 49.3394 25.2908 48.5307 24.9444 47.7219C24.4825 46.9131 23.7896 45.7577 23.0967 44.8334L22.7502 44.2557C22.4038 43.7936 22.0573 43.2159 21.7109 42.7537C21.5954 42.5227 21.4799 42.2916 21.4799 42.176C21.3644 41.945 21.3644 41.7139 21.4799 41.5983C21.5954 41.4828 21.5954 41.3673 21.8263 41.2517L21.9418 41.1362H22.2883C22.5192 41.1362 22.8657 41.2517 23.2121 41.5983C23.7896 42.0605 24.5979 42.7537 25.4063 43.7936L26.0992 44.4868C26.7921 45.18 27.485 45.8733 28.0624 46.5665C29.1018 47.6064 29.9102 48.2996 30.6031 48.6462C31.296 48.5307 31.9889 48.2996 32.9127 47.953C33.4902 47.7219 34.0676 47.4908 34.645 47.1442C34.9914 47.0287 35.3379 46.7976 35.6843 46.682C36.4927 46.3354 37.3011 45.9888 37.994 45.8733C38.3405 45.7577 38.6869 45.8733 38.9179 45.8733C39.2643 45.9888 39.4953 46.2199 39.6108 46.451C39.7263 46.682 39.7263 46.9131 39.6108 47.0287C39.6108 47.1442 39.4953 47.3753 39.2643 47.4908C39.0334 47.7219 38.6869 47.953 38.1095 48.1841C37.6476 48.4151 37.1856 48.5307 36.7237 48.7617C36.1463 48.9928 35.6843 49.1084 35.3379 49.3394C32.7973 50.4948 30.2566 51.7658 27.716 52.9211L27.485 53.0367C24.8289 54.3076 22.2883 55.5785 19.6322 56.7339C18.1309 57.5427 16.3986 57.3116 15.1283 56.2718C14.3199 55.3475 13.9735 54.3076 13.5115 53.2678Z" fill="#353C57"/>
<ellipse cx="110.864" cy="20.2193" rx="18.4773" ry="17.9085" fill="#9DF9CC"/>
<path d="M117.38 14.2208C118.217 13.5035 119.795 13.9356 120.039 14.9265C120.255 15.5537 119.841 16.1609 119.311 16.5579C116.517 18.9734 113.74 21.4038 110.947 23.821C110.328 24.4148 109.151 24.4115 108.545 23.8043C107.167 22.5549 105.793 21.3004 104.422 20.046C103.8 19.5372 103.758 18.6131 104.347 18.0742C104.935 17.4737 106.1 17.4487 106.718 18.0275C107.752 18.9417 108.754 19.8842 109.779 20.8067C112.323 18.6214 114.828 16.3994 117.38 14.2208Z" fill="#353C57"/>
<path d="M105.693 0.710953C110.785 -0.741801 116.449 0.0660882 120.966 2.82125C123.998 4.65078 126.532 7.30269 128.199 10.4292C129.65 13.1264 130.416 16.1677 130.498 19.2254V20.6564C130.275 23.7666 129.411 26.846 127.811 29.536C126.025 32.5918 123.398 35.1495 120.295 36.8523C117.478 38.4173 114.268 39.2216 111.053 39.2832H110.638C107.47 39.2162 104.311 38.4282 101.528 36.8994C98.4086 35.2129 95.7656 32.6625 93.9614 29.6102C91.7839 25.9602 90.8655 21.5857 91.3673 17.3669C91.9053 12.6391 94.2403 8.14318 97.8036 4.98951C98.1622 4.65802 98.6568 4.46964 99.1477 4.56564C99.9556 4.68338 100.562 5.52569 100.41 6.33177C100.336 6.92229 99.8397 7.3045 99.443 7.69214C96.0373 10.8947 94.1371 15.6098 94.3382 20.2778C94.4595 23.7829 95.7529 27.23 97.9521 29.9617C100.177 32.744 103.316 34.7927 106.776 35.6604C110.133 36.528 113.767 36.2998 116.986 35.0028C120.266 33.6986 123.101 31.3093 124.947 28.2988C128.313 22.9768 128.197 15.7203 124.652 10.5143C122.647 7.49107 119.625 5.15616 116.192 3.98055C113.332 2.99333 110.194 2.81582 107.245 3.50778C106.85 3.59291 106.457 3.71247 106.048 3.71247C105.314 3.69435 104.671 3.06579 104.606 2.33941C104.515 1.62934 104.993 0.892094 105.693 0.710953Z" fill="#353C57"/>
</svg>
