<svg width="142" height="108" viewBox="0 0 142 108" fill="none" xmlns="http://www.w3.org/2000/svg">
<path fill-rule="evenodd" clip-rule="evenodd" d="M27.7618 78.5776C27.7618 85.5548 33.4179 91.2109 40.3951 91.2109L127.92 91.2109C134.898 91.2109 140.554 85.5548 140.554 78.5776L140.554 40.8441C140.554 35.889 136.537 31.8721 131.582 31.8721C126.627 31.8721 122.61 27.8553 122.61 22.9002L122.61 20.907C122.61 14.8511 117.701 9.9418 111.645 9.9418L22.4512 9.94179C15.4741 9.94179 9.81795 15.5979 9.81795 22.5751L9.81795 49.9889C9.81795 54.9439 13.8348 58.9608 18.7899 58.9608C23.745 58.9608 27.7618 62.9777 27.7618 67.9327L27.7618 78.5776Z" fill="white"/>
<path d="M12.146 22.2217C12.146 15.2445 17.8021 9.58838 24.7793 9.58838L69.5966 9.58838C83.0689 9.58838 87.1842 27.8587 75.0131 33.6349L55.1704 43.0518L30.9145 56.5272C22.4941 61.2053 12.146 55.1164 12.146 45.4837L12.146 22.2217Z" fill="#EBEEFF"/>
<path d="M63.9471 27.8655L35.2642 27.8655C34.9057 27.8655 34.5471 27.8655 34.1886 27.8655C32.7545 27.8655 31.3203 27.8655 30.0057 28.224C27.2569 29.0606 24.9862 31.3313 24.1496 34.0801C23.791 35.3948 23.7911 36.7094 23.7911 38.1435C23.7911 38.5021 23.7911 38.7411 23.7911 39.0996L23.791 51.2899C23.791 61.0899 23.791 70.8899 23.791 80.6898C23.791 82.4825 23.791 84.2752 24.5081 85.8289C25.7032 89.0557 29.0496 91.3264 32.3959 91.2069C50.8008 91.2069 69.0861 91.2069 87.491 91.2069C102.071 91.2069 116.532 91.2069 131.113 91.2069C132.906 91.2069 134.698 91.2069 136.132 90.6094C139.359 89.4142 141.63 86.1874 141.75 82.7216L141.75 35.7533C141.51 33.7216 140.674 31.8094 139.359 30.4948C137.686 28.7021 135.296 27.6265 132.786 27.746L88.0886 27.746C87.3715 27.746 86.7739 27.8655 86.4154 28.3435C85.9374 28.8216 85.9374 29.6582 85.9374 30.3753L85.9374 30.8533C85.9374 31.5704 85.9374 32.2874 85.9374 32.885C85.9374 33.7216 85.9374 34.5582 85.9374 35.5143C85.9374 36.3509 86.6544 37.1874 87.491 37.1874C88.3276 37.3069 89.2837 36.5899 89.2837 35.7533C89.4032 34.9167 89.4032 34.0801 89.2837 33.2435C89.2837 32.7655 89.2837 32.2874 89.2837 31.8094L89.2837 31.2118L102.43 31.2118C112.589 31.2118 122.628 31.2118 132.786 31.2118C134.101 31.2118 135.535 31.6899 136.491 32.7655C137.567 33.8411 138.045 35.1557 138.045 36.4704C138.045 51.7679 138.045 66.946 138.045 82.2435C138.045 84.2752 136.969 86.1874 135.176 87.024C134.101 87.6216 132.786 87.6216 131.591 87.6216C131.352 87.6216 131.113 87.6216 130.874 87.6216C122.986 87.6216 115.098 87.6216 107.211 87.6216L89.1642 87.6216L89.1642 87.024C89.1642 86.5459 89.1642 86.0679 89.1642 85.7094C89.1642 84.9923 89.1642 84.1557 89.1642 83.4386C89.1642 82.602 88.3276 81.885 87.491 81.885C86.6544 81.7655 85.8178 82.4825 85.6983 83.3191C85.5788 84.1557 85.5788 84.8728 85.6983 85.7094C85.6983 86.1874 85.6983 86.6655 85.6983 87.1435L85.6983 87.7411L32.5154 87.7411C30.6032 87.8606 28.691 86.6655 27.7349 84.8728C27.1374 83.6776 27.1374 82.4825 27.1374 81.2874C27.1374 81.0484 27.1374 80.6898 27.1374 80.4508C27.1374 66.4679 27.1374 52.485 27.1374 38.6216C27.1374 38.3826 27.1374 38.1435 27.1374 37.9045C27.1374 36.7094 27.1374 35.3948 27.7349 34.1996C28.691 32.4069 30.6032 31.2118 32.7545 31.3313L45.3032 31.3313C51.9959 31.3313 58.8081 31.3313 65.5008 31.3313L65.6203 31.3313C66.0983 31.3313 66.5764 31.0923 66.8154 30.8533C67.174 30.4948 67.2935 30.0167 67.2935 29.6582C67.2935 26.9094 67.2935 24.1606 67.2935 21.4118L67.2935 20.2167C67.413 19.2606 66.6959 18.424 65.8593 18.3045C65.3813 18.185 64.9032 18.3045 64.4252 18.6631C64.0666 19.0216 63.8276 19.3801 63.8276 19.8582C63.8276 21.2923 63.8276 22.7265 63.8276 24.1606C63.8276 25.2362 63.8276 26.1923 63.8276 27.2679L63.9471 27.8655Z" fill="#353C57"/>
<path d="M87.3715 62.6435C86.5349 62.763 85.9373 63.5996 85.9373 64.4362C85.9373 65.5118 85.9373 66.7069 85.9373 67.7825C85.9373 69.9338 85.9373 72.085 85.9373 74.1167C85.9373 74.5947 86.2959 75.0728 86.7739 75.4313C87.1325 75.6703 87.3715 75.6703 87.73 75.6703C87.9691 75.6703 88.0886 75.6703 88.3276 75.5508C89.0447 75.3118 89.5227 74.5947 89.4032 73.8777L89.4032 71.7264C89.4032 69.2167 89.4032 66.7069 89.4032 64.1972C89.4032 63.7191 89.1642 63.2411 88.8056 62.8825C88.3276 62.6435 87.8495 62.524 87.3715 62.6435Z" fill="#353C57"/>
<path d="M47.574 68.9777C50.8008 68.9777 54.0276 68.9777 57.1349 68.9777C60.8398 68.9777 64.5447 68.9777 68.2496 68.9777L68.4886 68.9777C68.8471 68.9777 69.3252 68.9777 69.5642 68.8582C70.2813 68.4996 70.7593 67.663 70.5203 66.946C70.4008 66.1094 69.5642 65.5118 68.7276 65.5118C61.5569 65.5118 54.5057 65.5118 47.4544 65.5118C46.9764 65.5118 46.4984 65.6313 46.1398 65.9899C45.7813 66.3484 45.5423 66.8264 45.6618 67.3045C45.6618 67.7825 45.9008 68.2606 46.2593 68.4996C46.6179 68.7386 47.0959 68.9777 47.574 68.9777Z" fill="#24C879"/>
<path d="M11.0033 0.85574C8.13497 0.736225 5.5057 2.17038 3.83254 4.3216C2.87644 5.63623 2.15937 7.18989 2.03985 9.10208L2.03984 56.3094C2.39838 60.0142 5.38619 63.4801 9.21057 64.1972C10.1667 64.3167 11.3618 64.4362 12.1984 63.7191C12.5569 63.3606 12.6764 62.763 12.5569 62.285C12.4374 61.6874 12.0789 61.2094 11.6008 60.9703C11.2423 60.8508 10.8837 60.8508 10.4057 60.7313C9.80814 60.6118 9.21057 60.6118 8.61302 60.3728C6.58132 59.5362 5.38619 57.385 5.50569 55.2338C5.5057 48.6606 5.5057 42.0874 5.5057 35.5143C5.5057 26.9094 5.5057 18.3045 5.5057 9.81916C5.5057 8.50452 5.98374 7.07037 7.05935 6.11428C8.13497 5.03867 9.44961 4.56063 10.7642 4.56063C22.5959 4.56063 34.4276 4.56063 46.2593 4.56063L63.9471 4.56063L63.9471 5.15819C63.9471 5.63623 63.9471 6.23379 63.9471 6.83135C63.9471 7.78745 63.8276 8.74355 64.1861 9.58013C64.4252 10.1777 65.1422 10.4167 65.7398 10.4167C66.3374 10.4167 66.9349 10.1777 67.2935 9.46063C67.5325 8.62404 67.5325 7.66794 67.5325 6.71185C67.5325 6.11428 67.5325 5.63623 67.5325 5.03867L67.5325 4.44111L82.113 4.44111C91.7934 4.44111 101.593 4.44111 111.274 4.44111C113.903 4.3216 116.293 6.59233 116.532 9.2216C116.652 10.2972 116.652 11.3728 116.532 12.4484C116.532 13.4045 116.532 14.3606 116.532 15.3167C116.532 16.1533 117.25 16.8704 118.086 16.8704C118.923 16.9899 119.759 16.2728 119.879 15.4362C119.998 14.7192 119.998 14.0021 119.998 13.285C119.998 12.9265 119.998 12.5679 119.998 12.2094L119.998 11.3728C119.998 9.69965 119.998 8.02648 119.401 6.47282C118.206 3.246 114.74 0.855749 111.274 0.855748C111.274 0.855748 111.274 0.855748 111.154 0.855748C91.0764 0.855747 70.9983 0.855745 50.9203 0.855743L11.0033 0.85574Z" fill="#353C57"/>
<path d="M87.3715 43.2826C86.5349 43.4021 85.9374 44.2387 85.9374 45.0752C85.9374 46.1508 85.9374 47.2265 85.9374 48.1826C85.9374 50.3338 85.9374 52.6045 85.9374 54.7557C85.9374 55.2338 86.2959 55.7118 86.7739 56.0704C87.1325 56.3094 87.3715 56.3094 87.73 56.3094C87.9691 56.3094 88.0886 56.3094 88.3276 56.1899C89.0447 55.9508 89.5227 55.2338 89.4032 54.5167L89.4032 52.0069C89.4032 49.6167 89.4032 47.2265 89.4032 44.8362C89.4032 44.3582 89.1642 43.8801 88.8056 43.5216C88.3276 43.2826 87.8495 43.163 87.3715 43.2826Z" fill="#353C57"/>
<path d="M58.091 53.6801C59.5252 53.6801 60.9593 53.6801 62.513 53.6801C64.7837 53.6801 67.174 53.6801 69.4447 53.5606C70.2813 53.3216 70.7593 52.485 70.6398 51.6484C70.5203 50.8118 69.6837 50.0947 68.8471 50.2143C66.6959 50.2143 64.6642 50.2143 62.513 50.2143C61.6764 50.2143 60.9593 50.2143 60.1227 50.2143C59.0471 50.2143 57.9715 50.2143 56.8959 50.2143C56.1788 50.2143 55.4618 50.2143 55.1032 50.6923C54.7447 51.0508 54.5057 51.5289 54.5057 52.0069C54.5057 52.485 54.7447 53.0825 55.1032 53.3216C55.7008 53.7996 56.4179 53.7996 57.2545 53.6801C57.4935 53.6801 57.852 53.6801 58.091 53.6801Z" fill="#24C879"/>
<path d="M114.943 44.9614H115.505C117.883 45.0293 120.251 45.6153 122.362 46.7176C125.59 48.3881 128.213 51.2016 129.637 54.5474C130.425 56.3789 130.838 58.3627 130.899 60.3545V61.1478C130.832 63.4499 130.282 65.7416 129.247 67.8013C127.435 71.4389 124.175 74.3326 120.332 75.6638C118.783 76.2103 117.146 76.4904 115.506 76.5446H114.714C112.306 76.4756 109.909 75.8741 107.777 74.7465C104.513 73.0372 101.877 70.1527 100.486 66.739C99.7619 64.9865 99.3832 63.1002 99.3159 61.2077V60.3052C99.3745 58.6835 99.6552 57.0673 100.194 55.535C101.407 52.0343 103.913 49.0117 107.103 47.134C109.464 45.735 112.2 44.9867 114.943 44.9614ZM114.385 47.4498C112.499 47.5522 110.636 48.0587 108.963 48.9365C105.935 50.5039 103.554 53.2761 102.478 56.5127C101.272 60.051 101.657 64.0946 103.528 67.3325C105.224 70.3304 108.125 72.6233 111.442 73.559C114.2 74.3573 117.218 74.2246 119.895 73.1852C121.938 72.3981 123.778 71.0953 125.204 69.4341C126.904 67.4682 128.01 64.9933 128.325 62.4124C128.744 59.1683 127.907 55.7818 126.015 53.1132C124.756 51.3163 123.049 49.8365 121.089 48.8501C119.029 47.8039 116.691 47.3246 114.385 47.4498Z" fill="#353C57"/>
<path d="M109.338 55.1779C109.786 55.0761 110.28 55.1834 110.638 55.4746C111.003 55.7608 111.224 56.2191 111.22 56.683C111.223 57.1894 110.957 57.6879 110.533 57.9642C110.123 58.2418 109.577 58.2998 109.118 58.1172C108.496 57.884 108.075 57.2147 108.144 56.5522C108.187 55.8977 108.698 55.3154 109.338 55.1779Z" fill="#353C57"/>
<path d="M120.133 55.1779C120.579 55.0767 121.07 55.1822 121.427 55.4702C121.777 55.7423 121.997 56.1722 122.013 56.6151C122.04 57.1284 121.787 57.6447 121.366 57.9383C120.952 58.2381 120.384 58.3066 119.91 58.116C119.289 57.8816 118.871 57.2135 118.938 56.5528C118.981 55.8983 119.493 55.3154 120.133 55.1779Z" fill="#353C57"/>
<path d="M114.336 63.3204C115.769 63.1625 117.241 63.4956 118.483 64.221C119.548 64.8422 120.474 65.6984 121.191 66.7002C121.439 67.0216 121.532 67.4614 121.402 67.8506C121.269 68.2849 120.875 68.6242 120.427 68.6933C119.986 68.7697 119.51 68.5822 119.246 68.2201C118.518 67.1665 117.473 66.2912 116.234 65.9205C115.28 65.6379 114.228 65.7114 113.32 66.116C112.316 66.5608 111.467 67.3177 110.847 68.2189C110.519 68.6741 109.861 68.8407 109.355 68.5989C108.859 68.3836 108.552 67.8155 108.646 67.2825C108.701 66.9 108.971 66.6039 109.196 66.3079C110.467 64.7361 112.293 63.5271 114.336 63.3204Z" fill="#353C57"/>
<path d="M114.943 44.9614H115.505C117.883 45.0293 120.251 45.6153 122.362 46.7176C125.59 48.3881 128.213 51.2016 129.637 54.5474C130.425 56.3789 130.838 58.3627 130.899 60.3545V61.1478C130.832 63.4499 130.282 65.7416 129.247 67.8013C127.435 71.4389 124.175 74.3326 120.332 75.6638C118.783 76.2103 117.146 76.4904 115.506 76.5446H114.714C112.306 76.4756 109.909 75.8741 107.777 74.7465C104.513 73.0372 101.877 70.1527 100.486 66.739C99.7619 64.9865 99.3832 63.1002 99.3159 61.2077V60.3052C99.3745 58.6835 99.6552 57.0673 100.194 55.535C101.407 52.0343 103.913 49.0117 107.103 47.134C109.464 45.735 112.2 44.9867 114.943 44.9614ZM114.385 47.4498C112.499 47.5522 110.636 48.0587 108.963 48.9365C105.935 50.5039 103.554 53.2761 102.478 56.5127C101.272 60.051 101.657 64.0946 103.528 67.3325C105.224 70.3304 108.125 72.6233 111.442 73.559C114.2 74.3573 117.218 74.2246 119.895 73.1852C121.938 72.3981 123.778 71.0953 125.204 69.4341C126.904 67.4682 128.01 64.9933 128.325 62.4124C128.744 59.1683 127.907 55.7818 126.015 53.1132C124.756 51.3163 123.049 49.8365 121.089 48.8501C119.029 47.8039 116.691 47.3246 114.385 47.4498Z" stroke="#353C57" stroke-width="0.631664"/>
<path d="M109.338 55.1779C109.786 55.0761 110.28 55.1834 110.638 55.4746C111.003 55.7608 111.224 56.2191 111.22 56.683C111.223 57.1894 110.957 57.6879 110.533 57.9642C110.123 58.2418 109.577 58.2998 109.118 58.1172C108.496 57.884 108.075 57.2147 108.144 56.5522C108.187 55.8977 108.698 55.3154 109.338 55.1779Z" stroke="#353C57" stroke-width="0.631664"/>
<path d="M120.133 55.1779C120.579 55.0767 121.07 55.1822 121.427 55.4702C121.777 55.7423 121.997 56.1722 122.013 56.6151C122.04 57.1284 121.787 57.6447 121.366 57.9383C120.952 58.2381 120.384 58.3066 119.91 58.116C119.289 57.8816 118.871 57.2135 118.938 56.5528C118.981 55.8983 119.493 55.3154 120.133 55.1779Z" stroke="#353C57" stroke-width="0.631664"/>
<path d="M114.336 63.3204C115.769 63.1625 117.241 63.4956 118.483 64.221C119.548 64.8422 120.474 65.6984 121.191 66.7002C121.439 67.0216 121.532 67.4614 121.402 67.8506C121.269 68.2849 120.875 68.6242 120.427 68.6933C119.986 68.7697 119.51 68.5822 119.246 68.2201C118.518 67.1665 117.473 66.2912 116.234 65.9205C115.28 65.6379 114.228 65.7114 113.32 66.116C112.316 66.5608 111.467 67.3177 110.847 68.2189C110.519 68.6741 109.861 68.8407 109.355 68.5989C108.859 68.3836 108.552 67.8155 108.646 67.2825C108.701 66.9 108.971 66.6039 109.196 66.3079C110.467 64.7361 112.293 63.5271 114.336 63.3204Z" stroke="#353C57" stroke-width="0.631664"/>
<ellipse cx="24.8827" cy="83.563" rx="19.1219" ry="18.5244" fill="#FFC0D3"/>
<path d="M31.6325 88.7539C33.3065 90.4482 30.7236 92.489 29.3628 90.9182C26.6656 88.2108 19.8108 81.4759 17.112 78.7706C15.7723 77.4306 17.9569 75.246 19.357 76.6455C21.7983 79.1123 29.1975 86.2787 31.6325 88.7539Z" fill="#353C57"/>
<path d="M19.608 90.9396C17.8775 92.576 15.8937 89.949 17.4939 88.6229C20.2598 85.9857 27.1237 79.2602 29.8875 76.6213C31.2565 75.3113 33.3928 77.5431 31.9629 78.9123C29.4432 81.2991 22.1359 88.5593 19.608 90.9396Z" fill="#353C57"/>
<path d="M35.1224 100.494C30.4211 103.31 24.5423 104.02 19.2903 102.476C15.7692 101.461 12.5259 99.4899 10.0229 96.8125C7.85033 94.5062 6.27012 91.6727 5.37003 88.6395L4.98692 87.2097C4.37699 84.0425 4.41634 80.7343 5.29514 77.6182C6.26251 74.0865 8.20346 70.8274 10.8496 68.295C13.2464 65.9768 16.2399 64.3134 19.4376 63.3906L19.8523 63.2795C23.0374 62.4979 26.4064 62.4389 29.5971 63.2212C33.1669 64.0706 36.4917 65.911 39.1124 68.4773C42.2662 71.541 44.3555 75.6658 44.9833 80.0154C45.7112 84.8832 44.5807 90.0007 41.8631 94.1061C41.5933 94.5334 41.1494 94.8541 40.633 94.8897C39.7938 94.9884 38.9617 94.3094 38.898 93.4632C38.8141 92.8533 39.208 92.3385 39.5008 91.8449C42.0477 87.7329 42.685 82.5128 41.2342 77.9027C40.1745 74.4331 37.9587 71.3354 35.0291 69.1951C32.0605 67.011 28.3739 65.8049 24.6829 65.8648C21.0951 65.8969 17.5237 67.0983 14.6531 69.2564C11.7228 71.4382 9.52854 74.5848 8.48929 78.0872C6.54956 84.3061 8.60816 91.5254 13.5457 95.7773C16.3597 98.2609 20.0052 99.7845 23.7515 100.04C26.8751 100.26 30.059 99.5968 32.8218 98.1155C33.1937 97.9247 33.5547 97.6999 33.9639 97.5903C34.7022 97.4119 35.5133 97.8676 35.7729 98.5759C36.0536 99.2611 35.7729 100.126 35.1224 100.494Z" fill="#353C57"/>
</svg>
