<svg width="51" height="26" viewBox="0 0 51 26" fill="none" xmlns="http://www.w3.org/2000/svg">
    <path d="M18.5504 0.0986705C18.9641 -0.0509244 19.4076 0.0192937 19.8376 0.000975981C22.9935 0.0376115 26.1549 -0.0387128 29.3135 0.0376111C30.1762 0.229947 29.9788 1.43587 29.9842 2.16552C30.0383 3.60957 28.9457 4.9773 27.6531 4.98035C24.773 5.01393 21.8902 4.99561 19.0101 4.98951C18.5179 5.04751 18.0122 4.58041 18.023 4.01256C17.996 2.99287 17.9879 1.96708 18.0257 0.947392C18.023 0.574932 18.2691 0.260477 18.5504 0.0986705Z" fill="#141414"/>
    <path d="M0.575176 5.65432C1.92642 1.93421 6.56221 0.196948 10.2158 1.35512C12.6246 1.98591 14.6411 3.97652 15.127 6.4273C15.4414 7.96809 15.5012 9.74154 16.7095 10.9075C17.4033 11.6003 18.4427 11.6029 19.3548 11.577C23.0811 11.5486 26.8074 11.5564 30.5311 11.5719C32.1032 11.683 33.2986 10.2405 33.5194 8.80569C33.7143 7.27266 33.4285 5.70344 33.6987 4.17817C34.1873 3.40519 35.2371 3.77488 35.9932 3.69215C36.6169 3.71283 37.6381 3.56289 37.7992 4.39016C37.9447 5.85855 37.794 7.33988 37.9447 8.80828C38.0825 10.2069 39.3116 11.3263 40.681 11.515C41.6217 11.6417 42.5779 11.6313 43.5238 11.5745C44.8543 11.4943 46.1639 10.605 46.5589 9.31239C46.7512 7.68371 46.5771 6.03435 46.6888 4.39791C46.9227 3.48792 48.0193 3.74385 48.7157 3.71025C49.4745 3.76971 50.7529 3.42329 50.9192 4.49615C51.0154 6.54105 51.1245 8.64282 50.6074 10.6489C50.0799 12.7792 48.3987 14.5449 46.3432 15.2946C45.2804 15.7237 44.1241 15.7702 42.9937 15.8375C41.4138 15.8969 39.7793 15.8737 38.2774 15.3204C37.3393 14.9843 36.5727 14.3251 35.723 13.8262C34.3432 15.0309 32.6229 15.8297 30.7598 15.8452C26.6177 15.9254 22.4705 15.9124 18.3284 15.8426C15.4544 15.7935 12.6818 13.8934 11.7723 11.1531C11.1122 9.6614 11.5774 7.81556 10.512 6.48935C8.99964 4.68746 5.77485 5.07007 4.63929 7.09687C4.20274 8.06115 4.29368 9.15987 4.37164 10.1836C4.447 10.8583 4.73544 11.7709 5.53838 11.8433C7.00136 11.9545 8.47213 11.7606 9.93251 11.9183C9.9455 13.0041 9.86235 14.2424 8.94767 14.9843C8.01479 15.9667 6.5726 16.0624 5.29932 15.9745C3.43357 15.8426 1.63018 14.7336 0.819439 13.0299C-0.300531 10.7472 -0.162808 8.03013 0.575176 5.65432Z" fill="#141414"/>
    <path d="M39.1325 20.6738C39.4103 19.6711 40.4946 18.959 41.5924 19.0095C44.384 18.9968 47.1783 18.9968 49.9699 19.0095C50.4958 18.9665 51.0083 19.3883 50.9786 19.8934C51.0137 21.5981 50.9975 23.3028 50.9867 25.0075C51.0272 25.4418 50.7143 25.9091 50.2315 25.9621C49.3199 26.0202 48.4028 26 47.4885 25.9772C47.038 26 46.6173 25.6363 46.5876 25.2196C46.5309 24.5276 46.5714 23.8331 46.5633 23.1411C44.3597 23.1386 42.1561 23.1512 39.9525 23.1386C38.6524 23.0932 39.0246 21.4794 39.1325 20.6738Z" fill="#141414"/>
</svg>