<svg width="32" height="32" viewBox="0 0 32 32" fill="none" xmlns="http://www.w3.org/2000/svg">
<circle cx="16" cy="16" r="15.4688" fill="#25C37C" fill-opacity="0.1" stroke="#717972" stroke-width="0.9375"/>
<path d="M16.2684 20.5836C18.9576 20.5836 21.1377 18.4036 21.1377 15.7143C21.1377 13.0251 18.9576 10.845 16.2684 10.845C13.5791 10.845 11.399 13.0251 11.399 15.7143C11.399 18.4036 13.5791 20.5836 16.2684 20.5836Z" fill="#FFB6B6"/>
<path d="M13.4731 21.3037L13.2531 19.08L17.646 18.2586L20.24 24.5744L15.7287 29.7624L12.5144 23.4466L13.4731 21.3037Z" fill="#FFB6B6"/>
<path d="M13.1823 20.1931L14.1427 20.4101C14.1427 20.4101 13.3878 18.016 13.644 17.7874C13.9003 17.5589 14.5282 17.919 14.5282 17.919L15.1881 18.6589L15.9919 17.8405C15.9919 17.8405 16.8646 16.7554 17.2062 16.4507C17.5479 16.1459 16.9991 15.0148 16.9991 15.0148C16.9991 15.0148 22.0682 13.6479 20.182 11.1892C20.182 11.1892 19.0761 9.26151 18.716 9.88947C18.3558 10.5174 17.9264 9.5201 17.9264 9.5201L16.6151 9.76946C16.6151 9.76946 14.0271 8.24349 11.5707 11.508C9.1144 14.7724 13.1823 20.1931 13.1823 20.1931Z" fill="#2F2E41"/>
<path d="M25.4264 27.6701C22.7653 29.8276 19.4732 31 16.0001 31C12.8286 31 9.80776 30.0222 7.28088 28.2097C7.2854 28.1624 7.28991 28.1156 7.29386 28.0688C7.36096 27.3357 7.42074 26.6229 7.46021 26.0319C7.61303 23.7374 12.9662 22.2081 12.9662 22.2081C12.9662 22.2081 12.9905 22.2323 13.039 22.2746C13.3345 22.534 14.5339 23.4746 16.6373 23.7374C18.5128 23.972 19.1303 22.8594 19.317 22.3265C19.3734 22.1641 19.3903 22.0552 19.3903 22.0552L24.8963 24.6554C25.2555 25.1686 25.3959 26.2738 25.4236 27.5161C25.4247 27.5675 25.4258 27.6182 25.4264 27.6701Z" fill="#25C37C"/>
</svg>
